<svg width="153" height="64" viewBox="0 0 153 64" fill="none" xmlns="http://www.w3.org/2000/svg">
<ellipse cx="76.5" cy="32" rx="76.5" ry="32" fill="#FFA500" fill-opacity="0.75"/>
<g filter="url(#filter0_d_459_2435)">
<rect x="13" y="43.5769" width="127" height="2.42308" fill="#FFA500"/>
<rect x="13.5" y="44.0769" width="126" height="1.42308" stroke="black"/>
</g>
<g filter="url(#filter1_d_459_2435)">
<path d="M36.6147 32.4585C36.0274 32.4585 35.4904 32.3569 35.004 32.1538C34.5176 31.9508 34.1046 31.6554 33.765 31.2677C33.4254 30.8708 33.1638 30.3815 32.9803 29.8C32.9436 29.6708 32.9619 29.5692 33.0353 29.4954C33.1088 29.4123 33.2189 29.3523 33.3657 29.3154C33.4942 29.2692 33.6135 29.2508 33.7237 29.26C33.843 29.2692 33.9256 29.3431 33.9715 29.4815C34.1367 29.8785 34.3203 30.2108 34.5222 30.4785C34.7333 30.7462 35.004 30.9492 35.3344 31.0877C35.6648 31.2169 36.0916 31.2815 36.6147 31.2815C36.8901 31.2815 37.1517 31.2446 37.3995 31.1708C37.6473 31.0877 37.8721 30.9723 38.074 30.8246C38.2851 30.6677 38.4641 30.4692 38.6109 30.2292C38.7578 29.98 38.8725 29.6846 38.9551 29.3431C39.0377 29.0015 39.079 28.6092 39.079 28.1662V19.3738C39.079 19.2446 39.1295 19.1523 39.2305 19.0969C39.3314 19.0323 39.4829 19 39.6848 19C39.8867 19 40.0381 19.0323 40.1391 19.0969C40.24 19.1523 40.2905 19.2446 40.2905 19.3738V28.1662C40.2905 28.7292 40.2309 29.2369 40.1115 29.6892C39.9922 30.1323 39.8224 30.5292 39.6022 30.88C39.3819 31.2308 39.1203 31.5215 38.8175 31.7523C38.5146 31.9831 38.175 32.1585 37.7987 32.2785C37.4316 32.3985 37.0369 32.4585 36.6147 32.4585Z" fill="black"/>
<path d="M45.557 32.4308C45.0247 32.4308 44.5796 32.3385 44.2216 32.1538C43.8637 31.96 43.5929 31.6785 43.4094 31.3092C43.235 30.9308 43.1478 30.46 43.1478 29.8969V25.4246C43.1478 25.3046 43.1937 25.2169 43.2855 25.1615C43.3864 25.0969 43.5333 25.0646 43.726 25.0646C43.9279 25.0646 44.0794 25.0969 44.1803 25.1615C44.2813 25.2169 44.3318 25.3046 44.3318 25.4246V29.8969C44.3318 30.22 44.3822 30.4923 44.4832 30.7138C44.5841 30.9354 44.7356 31.1015 44.9375 31.2123C45.1486 31.3231 45.4056 31.3785 45.7085 31.3785C45.9654 31.3785 46.2041 31.3369 46.4243 31.2538C46.6446 31.1708 46.8419 31.06 47.0163 30.9215C47.1999 30.7738 47.3605 30.5985 47.4982 30.3954C47.6358 30.1923 47.7505 29.9754 47.8423 29.7446V25.4246C47.8423 25.3046 47.8882 25.2169 47.98 25.1615C48.081 25.0969 48.2324 25.0646 48.4343 25.0646C48.627 25.0646 48.7739 25.0969 48.8748 25.1615C48.9758 25.2169 49.0263 25.3046 49.0263 25.4246V30.2569C49.0263 30.6723 49.0859 30.9677 49.2053 31.1431C49.3337 31.3092 49.5678 31.3923 49.9074 31.3923C50.0359 31.3923 50.1322 31.4477 50.1965 31.5585C50.2607 31.66 50.2837 31.78 50.2653 31.9185C50.2561 32.0477 50.2011 32.1631 50.1001 32.2646C49.9991 32.3754 49.8477 32.4308 49.6458 32.4308C49.4072 32.4308 49.1915 32.4031 48.9987 32.3477C48.8152 32.3015 48.65 32.2277 48.5031 32.1262C48.3655 32.0154 48.2462 31.8815 48.1452 31.7246C48.0534 31.5677 47.9846 31.3831 47.9387 31.1708L47.9112 31.0323C47.7827 31.2538 47.6358 31.4523 47.4706 31.6277C47.3146 31.7938 47.1356 31.9369 46.9337 32.0569C46.741 32.1769 46.5299 32.2692 46.3004 32.3338C46.071 32.3985 45.8232 32.4308 45.557 32.4308Z" fill="black"/>
<path d="M49.7901 32.4308C49.6616 32.4308 49.5744 32.3754 49.5286 32.2646C49.4827 32.1631 49.4735 32.0477 49.501 31.9185C49.5194 31.78 49.5699 31.66 49.6525 31.5585C49.7351 31.4477 49.8406 31.3923 49.9691 31.3923C50.272 31.3923 50.5565 31.2677 50.8227 31.0185C51.0888 30.76 51.332 30.4092 51.5523 29.9662C51.7817 29.5231 51.9928 29.0108 52.1856 28.4292C52.3875 27.8385 52.5711 27.2108 52.7363 26.5462C52.7821 26.38 52.8647 26.2877 52.9841 26.2692C53.1126 26.2415 53.2273 26.2646 53.3282 26.3385C53.4384 26.4123 53.4797 26.5231 53.4521 26.6708C53.3604 27.2338 53.2365 27.7969 53.0804 28.36C52.9336 28.9138 52.7546 29.4354 52.5435 29.9246C52.3416 30.4138 52.103 30.8477 51.8276 31.2262C51.5615 31.5954 51.2586 31.8908 50.919 32.1123C50.5794 32.3246 50.2031 32.4308 49.7901 32.4308Z" fill="black"/>
<path d="M54.113 32.4585C53.8284 32.4585 53.5393 32.4215 53.2456 32.3477C52.9611 32.2831 52.6995 32.1908 52.4609 32.0708C52.2223 31.9508 52.0204 31.8169 51.8552 31.6692C51.7817 31.5954 51.7496 31.5077 51.7588 31.4062C51.7772 31.3046 51.846 31.1846 51.9653 31.0462C52.0571 30.9446 52.1397 30.8846 52.2131 30.8662C52.2957 30.8477 52.3967 30.8754 52.516 30.9492C52.7638 31.1246 53.0391 31.2631 53.342 31.3646C53.6541 31.4569 53.9202 31.5031 54.1405 31.5031C54.4158 31.5031 54.659 31.4615 54.8701 31.3785C55.0812 31.2862 55.2464 31.1523 55.3657 30.9769C55.4942 30.8015 55.5585 30.5938 55.5585 30.3538C55.5585 30.0585 55.4713 29.8323 55.2969 29.6754C55.1225 29.5092 54.8977 29.3846 54.6223 29.3015C54.3562 29.2092 54.0716 29.1215 53.7688 29.0385C53.4659 28.9462 53.1768 28.8308 52.9015 28.6923C52.6353 28.5446 52.415 28.3415 52.2406 28.0831C52.0663 27.8246 51.9791 27.4738 51.9791 27.0308C51.9791 26.6431 52.0754 26.2969 52.2682 25.9923C52.4701 25.6877 52.7454 25.4477 53.0942 25.2723C53.4521 25.0969 53.8606 25.0092 54.3195 25.0092C54.6866 25.0092 55.0124 25.0508 55.2969 25.1338C55.5906 25.2077 55.843 25.3092 56.0541 25.4385C56.2744 25.5585 56.4533 25.6923 56.591 25.84C56.692 25.9415 56.7333 26.0431 56.7149 26.1446C56.7057 26.2369 56.6507 26.3385 56.5497 26.4492C56.4487 26.5692 56.3478 26.6385 56.2468 26.6569C56.155 26.6662 56.0495 26.6292 55.9302 26.5462C55.6732 26.3615 55.4162 26.2185 55.1592 26.1169C54.9023 26.0154 54.6177 25.9646 54.3057 25.9646C53.9753 25.9646 53.6999 26.0477 53.4797 26.2138C53.2686 26.3708 53.163 26.5969 53.163 26.8923C53.163 27.1692 53.2456 27.3862 53.4108 27.5431C53.5852 27.6908 53.8055 27.8154 54.0716 27.9169C54.347 28.0092 54.6361 28.1015 54.939 28.1938C55.251 28.2862 55.5401 28.4062 55.8063 28.5538C56.0816 28.7015 56.3019 28.9046 56.4671 29.1631C56.6415 29.4123 56.7287 29.7492 56.7287 30.1738C56.7287 30.5708 56.6323 30.9446 56.4396 31.2954C56.256 31.6462 55.9715 31.9277 55.586 32.14C55.2005 32.3523 54.7095 32.4585 54.113 32.4585Z" fill="black"/>
<path d="M61.2338 32.4308C60.7933 32.4308 60.4078 32.3662 60.0774 32.2369C59.747 32.1077 59.467 31.9138 59.2376 31.6554C59.0173 31.3969 58.8475 31.0785 58.7282 30.7C58.6181 30.3215 58.563 29.8831 58.563 29.3846V26.38H57.4892C57.3515 26.38 57.2551 26.3385 57.2001 26.2554C57.145 26.1723 57.1175 26.0292 57.1175 25.8262C57.1175 25.6138 57.145 25.4708 57.2001 25.3969C57.2551 25.3138 57.3515 25.2723 57.4892 25.2723H58.563V22.4477C58.563 22.3277 58.6089 22.24 58.7007 22.1846C58.8016 22.12 58.9485 22.0877 59.1412 22.0877C59.3431 22.0877 59.4946 22.12 59.5955 22.1846C59.6965 22.24 59.747 22.3277 59.747 22.4477V25.2723H61.4816C61.6193 25.2723 61.7156 25.3138 61.7707 25.3969C61.8349 25.4708 61.8671 25.6138 61.8671 25.8262C61.8671 26.0292 61.8349 26.1723 61.7707 26.2554C61.7156 26.3385 61.6193 26.38 61.4816 26.38H59.747V29.3846C59.747 29.7169 59.7837 30.0077 59.8571 30.2569C59.9305 30.5062 60.0407 30.7138 60.1875 30.88C60.3344 31.0462 60.5133 31.1754 60.7244 31.2677C60.9447 31.3508 61.1971 31.3923 61.4816 31.3923C61.6101 31.3923 61.7065 31.4477 61.7707 31.5585C61.8349 31.66 61.8579 31.78 61.8395 31.9185C61.8304 32.0477 61.7753 32.1631 61.6743 32.2646C61.5734 32.3754 61.4265 32.4308 61.2338 32.4308Z" fill="black"/>
<path d="M61.2296 32.4308C61.1011 32.4308 61.0093 32.3754 60.9543 32.2646C60.89 32.1631 60.8671 32.0477 60.8854 31.9185C60.8946 31.78 60.9497 31.66 61.0506 31.5585C61.1516 31.4477 61.2984 31.3923 61.4912 31.3923C61.6839 31.3923 61.9088 31.3462 62.1657 31.2538C62.4136 31.1523 62.6797 31.0185 62.9642 30.8523C63.2487 30.6769 63.5333 30.4785 63.8178 30.2569C63.9371 30.1554 64.0472 30.1231 64.1482 30.16C64.2583 30.1877 64.3455 30.2523 64.4098 30.3538C64.474 30.4554 64.5015 30.5708 64.4924 30.7C64.4924 30.82 64.4373 30.9215 64.3272 31.0046C63.9692 31.2815 63.6021 31.5308 63.2258 31.7523C62.8587 31.9646 62.5053 32.1308 62.1657 32.2508C61.817 32.3708 61.5049 32.4308 61.2296 32.4308Z" fill="black"/>
<path d="M66.2408 32.4585C65.5065 32.4585 64.91 32.2969 64.4511 31.9738C63.9922 31.6415 63.6572 31.1892 63.4461 30.6169C63.235 30.0446 63.1294 29.3938 63.1294 28.6646C63.1294 28.1108 63.2029 27.6123 63.3497 27.1692C63.4966 26.7169 63.7031 26.3292 63.9692 26.0062C64.2354 25.6831 64.5474 25.4385 64.9054 25.2723C65.2725 25.0969 65.6717 25.0092 66.1031 25.0092C66.4794 25.0092 66.8052 25.0877 67.0805 25.2446C67.3651 25.4015 67.5853 25.6185 67.7414 25.8954C67.9066 26.1631 67.9892 26.4677 67.9892 26.8092C67.9892 27.0862 67.9387 27.3631 67.8377 27.64C67.7368 27.9169 67.567 28.2077 67.3284 28.5123C67.0897 28.8169 66.7685 29.1446 66.3647 29.4954C65.9608 29.8462 65.4606 30.2338 64.8641 30.6585L63.8315 30.2708C64.3914 29.8831 64.8595 29.5323 65.2358 29.2185C65.6121 28.9046 65.9104 28.6138 66.1306 28.3462C66.3601 28.0785 66.5253 27.8246 66.6262 27.5846C66.7272 27.3446 66.7777 27.1138 66.7777 26.8923C66.7777 26.6338 66.7043 26.44 66.5574 26.3108C66.4106 26.1815 66.2178 26.1169 65.9792 26.1169C65.7589 26.1169 65.5478 26.1815 65.3459 26.3108C65.1532 26.4308 64.9788 26.6015 64.8228 26.8231C64.6759 27.0446 64.5566 27.3077 64.4648 27.6123C64.3822 27.9169 64.3409 28.2492 64.3409 28.6092C64.3409 29.2277 64.4235 29.74 64.5887 30.1462C64.7539 30.5523 64.9788 30.8569 65.2633 31.06C65.557 31.2538 65.8828 31.3508 66.2408 31.3508C66.4519 31.3508 66.6538 31.3185 66.8465 31.2538C67.0392 31.18 67.232 31.0738 67.4247 30.9354C67.6266 30.7877 67.8285 30.6123 68.0305 30.4092C68.1681 30.2708 68.292 30.2015 68.4022 30.2015C68.5215 30.2015 68.6454 30.2523 68.7739 30.3538C68.9024 30.4554 68.9758 30.5662 68.9942 30.6862C69.0217 30.7969 68.9942 30.9123 68.9116 31.0323C68.6729 31.3831 68.3884 31.6646 68.058 31.8769C67.7368 32.08 67.411 32.2277 67.0805 32.32C66.7593 32.4123 66.4794 32.4585 66.2408 32.4585Z" fill="black"/>
<path d="M75.8138 32.4585C75.1163 32.4585 74.4922 32.3615 73.9415 32.1677C73.3909 31.9738 72.9228 31.6923 72.5373 31.3231C72.1518 30.9446 71.8536 30.4923 71.6425 29.9662C71.4405 29.4308 71.3396 28.8262 71.3396 28.1523V19.3738C71.3396 19.2446 71.3901 19.1523 71.491 19.0969C71.592 19.0323 71.7434 19 71.9453 19C72.1472 19 72.2987 19.0323 72.3996 19.0969C72.5006 19.1523 72.5511 19.2446 72.5511 19.3738V28.1523C72.5511 28.7985 72.6796 29.3569 72.9366 29.8277C73.1935 30.2985 73.5652 30.6585 74.0517 30.9077C74.5381 31.1569 75.1255 31.2815 75.8138 31.2815C76.493 31.2815 77.0666 31.1569 77.5347 30.9077C78.012 30.6585 78.3745 30.2985 78.6223 29.8277C78.8793 29.3569 79.0078 28.7985 79.0078 28.1523V19.3738C79.0078 19.2446 79.0583 19.1523 79.1592 19.0969C79.2602 19.0323 79.4116 19 79.6135 19C80.0173 19 80.2193 19.1246 80.2193 19.3738V28.1523C80.2193 29.0477 80.0403 29.8185 79.6823 30.4646C79.3336 31.1108 78.8288 31.6046 78.168 31.9462C77.5164 32.2877 76.7316 32.4585 75.8138 32.4585Z" fill="black"/>
<path d="M84.2686 32.4031C84.0758 32.4031 83.929 32.3708 83.828 32.3062C83.7362 32.2508 83.6904 32.1631 83.6904 32.0431V27.0862C83.6904 26.6985 83.6307 26.44 83.5114 26.3108C83.3921 26.1723 83.2269 26.1031 83.0158 26.1031C82.8598 26.1031 82.7267 26.1446 82.6165 26.2277C82.5156 26.3108 82.433 26.4308 82.3687 26.5877C82.3137 26.7446 82.277 26.9292 82.2586 27.1415C82.2494 27.2892 82.2081 27.4 82.1347 27.4738C82.0613 27.5385 81.942 27.5708 81.7768 27.5708C81.6299 27.5708 81.5106 27.5385 81.4188 27.4738C81.327 27.4092 81.2857 27.2569 81.2949 27.0169C81.3133 26.62 81.3959 26.2785 81.5427 25.9923C81.6804 25.6969 81.8731 25.4708 82.1209 25.3138C82.3779 25.1477 82.6762 25.0646 83.0158 25.0646C83.2544 25.0646 83.4655 25.0923 83.6491 25.1477C83.8418 25.1938 84.0116 25.2723 84.1584 25.3831C84.3053 25.4846 84.4292 25.6185 84.5301 25.7846C84.6311 25.9415 84.7091 26.1308 84.7642 26.3523L84.7917 26.4631C84.9202 26.2415 85.0716 26.0431 85.246 25.8677C85.4204 25.6923 85.6085 25.54 85.8105 25.4108C86.0216 25.2815 86.2418 25.1846 86.4713 25.12C86.7099 25.0462 86.9577 25.0092 87.2147 25.0092C87.6919 25.0092 88.1095 25.0969 88.4675 25.2723C88.8346 25.4477 89.1191 25.7246 89.321 26.1031C89.5321 26.4723 89.6377 26.9615 89.6377 27.5708V30.8662C89.6377 30.9862 89.656 31.0877 89.6927 31.1708C89.7295 31.2446 89.7799 31.3 89.8442 31.3369C89.9176 31.3738 89.9956 31.3923 90.0782 31.3923C90.1608 31.3923 90.2342 31.3785 90.2985 31.3508C90.3719 31.3231 90.4407 31.2862 90.505 31.24C90.5692 31.1846 90.6335 31.1338 90.6977 31.0877C90.7712 31.0323 90.8538 31.0231 90.9455 31.06C91.0373 31.0969 91.1153 31.1523 91.1796 31.2262C91.253 31.3185 91.2897 31.4108 91.2897 31.5031C91.2989 31.5954 91.2759 31.6831 91.2209 31.7662C91.1199 31.9046 90.9914 32.0246 90.8354 32.1262C90.6886 32.2277 90.5279 32.3015 90.3536 32.3477C90.1792 32.4031 90.0002 32.4308 89.8166 32.4308C89.578 32.4308 89.3715 32.3985 89.1971 32.3338C89.0228 32.2692 88.8805 32.1769 88.7704 32.0569C88.6602 31.9369 88.5776 31.7892 88.5226 31.6138C88.4767 31.4292 88.4537 31.2262 88.4537 31.0046V27.6815C88.4537 27.3585 88.4032 27.0815 88.3023 26.8508C88.2105 26.6108 88.0637 26.4308 87.8617 26.3108C87.6598 26.1815 87.3891 26.1169 87.0495 26.1169C86.8568 26.1169 86.6548 26.1446 86.4437 26.2C86.2418 26.2554 86.0445 26.3477 85.8518 26.4769C85.6682 26.5969 85.4892 26.7585 85.3149 26.9615C85.1497 27.1646 85.0028 27.4138 84.8743 27.7092V32.0431C84.8743 32.1631 84.8238 32.2508 84.7229 32.3062C84.6219 32.3708 84.4705 32.4031 84.2686 32.4031Z" fill="black"/>
<path d="M93.7388 32.3892C93.335 32.3892 93.1331 32.26 93.1331 32.0015V19.5954C93.1331 19.4662 93.1836 19.3738 93.2845 19.3185C93.3947 19.2538 93.5507 19.2215 93.7526 19.2215H96.5197C97.4834 19.2215 98.2865 19.3323 98.929 19.5538C99.5806 19.7662 100.072 20.1123 100.402 20.5923C100.732 21.0631 100.898 21.6908 100.898 22.4754C100.898 23.2138 100.76 23.8462 100.485 24.3723C100.209 24.8892 99.8468 25.3185 99.397 25.66C98.9473 25.9923 98.4517 26.2554 97.9102 26.4492C97.3687 26.6431 96.8226 26.7862 96.2719 26.8785C95.914 26.9246 95.5652 26.9615 95.2257 26.9892C94.8952 27.0169 94.6016 27.0308 94.3446 27.0308V32.0015C94.3446 32.1308 94.2941 32.2277 94.1931 32.2923C94.0922 32.3569 93.9407 32.3892 93.7388 32.3892ZM94.3446 25.9369C94.5281 25.9369 94.7255 25.9323 94.9365 25.9231C95.1476 25.9046 95.3633 25.8862 95.5836 25.8677C95.813 25.84 96.0425 25.8123 96.2719 25.7846C96.8502 25.6831 97.3962 25.5123 97.9102 25.2723C98.4242 25.0323 98.8418 24.6862 99.163 24.2338C99.4934 23.7815 99.6586 23.2 99.6586 22.4892C99.6586 21.9631 99.5393 21.5431 99.3007 21.2292C99.0712 20.9154 98.7225 20.6892 98.2544 20.5508C97.7863 20.4031 97.2081 20.3292 96.5197 20.3292H94.3446V25.9369Z" fill="black"/>
<path d="M104.577 32.4308C104.265 32.4308 103.994 32.3846 103.765 32.2923C103.535 32.2092 103.347 32.08 103.2 31.9046C103.053 31.72 102.943 31.4938 102.87 31.2262C102.806 30.9492 102.773 30.6262 102.773 30.2569V19.36C102.773 19.24 102.819 19.1523 102.911 19.0969C103.012 19.0323 103.159 19 103.352 19C103.554 19 103.705 19.0323 103.806 19.0969C103.907 19.1523 103.957 19.24 103.957 19.36V30.2569C103.957 30.6723 104.017 30.9677 104.136 31.1431C104.265 31.3092 104.499 31.3923 104.839 31.3923C104.967 31.3923 105.063 31.4477 105.128 31.5585C105.192 31.66 105.215 31.78 105.196 31.9185C105.187 32.0477 105.132 32.1631 105.031 32.2646C104.93 32.3754 104.779 32.4308 104.577 32.4308Z" fill="black"/>
<path d="M104.56 32.4308C104.432 32.4308 104.34 32.3754 104.285 32.2646C104.221 32.1631 104.198 32.0477 104.216 31.9185C104.226 31.78 104.281 31.66 104.382 31.5585C104.482 31.4477 104.629 31.3923 104.822 31.3923C105.097 31.3923 105.345 31.3554 105.565 31.2815C105.777 31.2077 105.96 31.0969 106.116 30.9492C106.272 30.8015 106.396 30.6169 106.488 30.3954C106.589 30.1738 106.658 29.9154 106.694 29.62C106.713 29.4815 106.782 29.3938 106.901 29.3569C107.02 29.3108 107.135 29.3108 107.245 29.3569C107.364 29.3938 107.415 29.4815 107.396 29.62C107.36 30.1092 107.263 30.5338 107.107 30.8938C106.951 31.2446 106.749 31.5354 106.502 31.7662C106.254 31.9877 105.965 32.1538 105.634 32.2646C105.313 32.3754 104.955 32.4308 104.56 32.4308Z" fill="black"/>
<path d="M109.31 32.4308C108.787 32.4308 108.323 32.3062 107.92 32.0569C107.516 31.7985 107.199 31.4108 106.97 30.8938C106.74 30.3769 106.626 29.7262 106.626 28.9415C106.626 28.4615 106.671 28.0185 106.763 27.6123C106.855 27.2062 106.983 26.8415 107.149 26.5185C107.323 26.1954 107.534 25.9231 107.782 25.7015C108.039 25.48 108.328 25.3092 108.649 25.1892C108.971 25.0692 109.324 25.0092 109.709 25.0092C110.086 25.0092 110.471 25.0831 110.866 25.2308C111.26 25.3785 111.614 25.5723 111.926 25.8123V26.8508C111.559 26.5554 111.205 26.3569 110.866 26.2554C110.535 26.1538 110.191 26.1031 109.833 26.1031C109.595 26.1031 109.37 26.14 109.159 26.2138C108.957 26.2877 108.773 26.3985 108.608 26.5462C108.452 26.6938 108.314 26.8785 108.195 27.1C108.085 27.3215 107.998 27.58 107.933 27.8754C107.878 28.1708 107.851 28.5077 107.851 28.8862C107.851 29.3938 107.91 29.8323 108.03 30.2015C108.149 30.5615 108.328 30.8385 108.567 31.0323C108.814 31.2262 109.122 31.3231 109.489 31.3231C109.819 31.3231 110.127 31.2492 110.411 31.1015C110.705 30.9446 110.971 30.7 111.21 30.3677C111.458 30.0262 111.669 29.5785 111.843 29.0246L112.063 29.8692C111.852 30.58 111.591 31.12 111.279 31.4892C110.976 31.8585 110.65 32.1077 110.301 32.2369C109.962 32.3662 109.631 32.4308 109.31 32.4308ZM113.303 32.4308C112.99 32.4308 112.72 32.3846 112.49 32.2923C112.261 32.2092 112.073 32.08 111.926 31.9046C111.779 31.72 111.669 31.4938 111.595 31.2262C111.531 30.9492 111.499 30.6262 111.499 30.2569V25.4662C111.499 25.3277 111.55 25.2262 111.65 25.1615C111.751 25.0969 111.903 25.0646 112.105 25.0646C112.298 25.0646 112.44 25.0969 112.532 25.1615C112.633 25.2169 112.683 25.3092 112.683 25.4385V30.2569C112.683 30.6723 112.743 30.9677 112.862 31.1431C112.99 31.3092 113.224 31.3923 113.564 31.3923C113.647 31.3923 113.706 31.4477 113.743 31.5585C113.789 31.66 113.803 31.78 113.784 31.9185C113.775 32.0477 113.729 32.1631 113.647 32.2646C113.573 32.3754 113.459 32.4308 113.303 32.4308Z" fill="black"/>
<path d="M113.299 32.4308C113.171 32.4308 113.079 32.3754 113.024 32.2646C112.96 32.1631 112.937 32.0477 112.955 31.9185C112.964 31.78 113.019 31.66 113.12 31.5585C113.221 31.4477 113.368 31.3923 113.561 31.3923C113.873 31.3923 114.157 31.3369 114.414 31.2262C114.681 31.1154 114.919 30.9631 115.13 30.7692C115.341 30.5754 115.53 30.3446 115.695 30.0769C115.869 29.8092 116.016 29.5185 116.135 29.2046C116.19 29.0662 116.273 29.0062 116.383 29.0246C116.493 29.0338 116.585 29.08 116.658 29.1631C116.741 29.2462 116.769 29.3385 116.741 29.44C116.594 29.9108 116.411 30.3308 116.19 30.7C115.97 31.0692 115.713 31.3831 115.419 31.6415C115.135 31.9 114.814 32.0938 114.456 32.2231C114.107 32.3615 113.721 32.4308 113.299 32.4308Z" fill="black"/>
<path d="M117.677 32.4308C117.292 32.4308 116.97 32.3569 116.713 32.2092C116.466 32.0708 116.278 31.8723 116.149 31.6138C116.03 31.3462 115.97 31.0277 115.97 30.6585V26.38H114.896C114.759 26.38 114.662 26.3385 114.607 26.2554C114.552 26.1723 114.525 26.0292 114.525 25.8262C114.525 25.6138 114.552 25.4708 114.607 25.3969C114.662 25.3138 114.759 25.2723 114.896 25.2723H115.97V22.4477C115.97 22.3277 116.016 22.24 116.108 22.1846C116.209 22.12 116.356 22.0877 116.548 22.0877C116.75 22.0877 116.902 22.12 117.003 22.1846C117.104 22.24 117.154 22.3277 117.154 22.4477V25.2723H118.889C119.026 25.2723 119.123 25.3138 119.178 25.3969C119.242 25.4708 119.274 25.6138 119.274 25.8262C119.274 26.0292 119.242 26.1723 119.178 26.2554C119.123 26.3385 119.026 26.38 118.889 26.38H117.154V30.52C117.154 30.8338 117.195 31.06 117.278 31.1985C117.37 31.3277 117.53 31.3923 117.76 31.3923C117.971 31.3923 118.15 31.3415 118.297 31.24C118.453 31.1385 118.613 31.0138 118.779 30.8662C118.889 30.7646 118.99 30.7323 119.081 30.7692C119.182 30.7969 119.274 30.8523 119.357 30.9354C119.458 31.0277 119.508 31.1246 119.508 31.2262C119.517 31.3185 119.494 31.4062 119.439 31.4892C119.283 31.72 119.109 31.9046 118.916 32.0431C118.723 32.1815 118.522 32.2785 118.31 32.3338C118.099 32.3985 117.888 32.4308 117.677 32.4308Z" fill="black"/>
</g>
<g filter="url(#filter2_d_459_2435)">
<path d="M27.089 34.732C27.3313 34.732 27.5296 34.7689 27.6838 34.8428C27.8416 34.9129 27.9811 34.996 28.1023 35.092C28.1757 35.1474 28.2308 35.1548 28.2675 35.1142C28.3079 35.0698 28.3354 34.9683 28.3501 34.8095H28.4768C28.4694 34.9462 28.4639 35.1123 28.4602 35.308C28.4566 35.5037 28.4547 35.7622 28.4547 36.0834H28.3281C28.3024 35.9246 28.2785 35.7991 28.2565 35.7068C28.2345 35.6108 28.2069 35.5295 28.1739 35.4631C28.1445 35.3966 28.1041 35.3302 28.0527 35.2637C27.9389 35.1123 27.7957 35.0034 27.6232 34.9369C27.4507 34.8668 27.2689 34.8317 27.078 34.8317C26.8981 34.8317 26.7348 34.8778 26.5879 34.9702C26.4448 35.0588 26.3199 35.188 26.2135 35.3578C26.1107 35.5277 26.0299 35.7326 25.9712 35.9726C25.9161 36.2126 25.8886 36.4822 25.8886 36.7812C25.8886 37.0914 25.9198 37.3665 25.9822 37.6065C26.0446 37.8428 26.1309 38.0422 26.241 38.2046C26.3548 38.3671 26.487 38.4908 26.6375 38.5757C26.7917 38.6569 26.9569 38.6975 27.1331 38.6975C27.2983 38.6975 27.4708 38.6643 27.6507 38.5978C27.8306 38.5314 27.972 38.4243 28.0748 38.2766C28.1555 38.1695 28.2106 38.0532 28.24 37.9277C28.273 37.8022 28.3024 37.6268 28.3281 37.4015H28.4547C28.4547 37.7375 28.4566 38.0089 28.4602 38.2157C28.4639 38.4188 28.4694 38.5905 28.4768 38.7308H28.3501C28.3354 38.572 28.3097 38.4723 28.273 38.4317C28.24 38.3911 28.1831 38.3966 28.1023 38.4483C27.9665 38.5443 27.8214 38.6292 27.6673 38.7031C27.5167 38.7732 27.3222 38.8083 27.0835 38.8083C26.7348 38.8083 26.4282 38.7289 26.1639 38.5702C25.9033 38.4114 25.6995 38.1825 25.5527 37.8834C25.4095 37.5843 25.3379 37.2243 25.3379 36.8034C25.3379 36.3898 25.4131 36.028 25.5637 35.7178C25.7142 35.4077 25.9198 35.1658 26.1804 34.9923C26.4448 34.8188 26.7476 34.732 27.089 34.732Z" fill="black"/>
<path d="M31.9376 35.8175V38.1326C31.9376 38.2988 31.967 38.4225 32.0257 38.5037C32.0881 38.5812 32.1983 38.62 32.3561 38.62V38.7363C32.2423 38.7252 32.1285 38.7197 32.0147 38.7197C31.9083 38.7197 31.8055 38.7252 31.7063 38.7363C31.6109 38.7474 31.5228 38.7677 31.442 38.7972V38.1437C31.3502 38.3837 31.2199 38.5554 31.051 38.6588C30.8858 38.7585 30.7151 38.8083 30.5389 38.8083C30.4104 38.8083 30.2984 38.7898 30.203 38.7529C30.1075 38.716 30.0286 38.6643 29.9662 38.5978C29.8965 38.524 29.8487 38.428 29.823 38.3098C29.7973 38.1917 29.7845 38.0458 29.7845 37.8723V36.4822C29.7845 36.316 29.7551 36.1942 29.6964 36.1166C29.6376 36.0354 29.5275 35.9948 29.366 35.9948V35.8785C29.4834 35.8895 29.5973 35.8951 29.7074 35.8951C29.8139 35.8951 29.9148 35.8895 30.0103 35.8785C30.1094 35.8637 30.1993 35.8434 30.2801 35.8175V37.9942C30.2801 38.1086 30.2874 38.2138 30.3021 38.3098C30.3168 38.4058 30.3535 38.4834 30.4123 38.5425C30.471 38.6015 30.5664 38.6311 30.6986 38.6311C30.8418 38.6311 30.9684 38.5868 31.0786 38.4982C31.1924 38.4095 31.2805 38.2895 31.3429 38.1382C31.409 37.9868 31.442 37.8169 31.442 37.6286V36.4822C31.442 36.316 31.4127 36.1942 31.3539 36.1166C31.2952 36.0354 31.185 35.9948 31.0235 35.9948V35.8785C31.141 35.8895 31.2548 35.8951 31.3649 35.8951C31.4714 35.8951 31.5723 35.8895 31.6678 35.8785C31.7669 35.8637 31.8569 35.8434 31.9376 35.8175Z" fill="black"/>
<path d="M33.7056 34.4938C33.8011 34.4938 33.8837 34.5289 33.9534 34.5991C34.0232 34.6692 34.058 34.7523 34.058 34.8483C34.058 34.9443 34.0232 35.0274 33.9534 35.0975C33.8837 35.1677 33.8011 35.2028 33.7056 35.2028C33.6102 35.2028 33.5276 35.1677 33.4578 35.0975C33.388 35.0274 33.3532 34.9443 33.3532 34.8483C33.3532 34.7523 33.388 34.6692 33.4578 34.5991C33.5276 34.5289 33.6102 34.4938 33.7056 34.4938ZM33.992 35.8175V38.2157C33.992 38.3708 34.0232 38.476 34.0856 38.5314C34.1517 38.5868 34.26 38.6145 34.4105 38.6145V38.7308C34.3481 38.7271 34.2526 38.7234 34.1241 38.7197C33.9993 38.7123 33.8726 38.7086 33.7442 38.7086C33.6193 38.7086 33.4927 38.7123 33.3642 38.7197C33.2357 38.7234 33.1402 38.7271 33.0778 38.7308V38.6145C33.2284 38.6145 33.3348 38.5868 33.3972 38.5314C33.4633 38.476 33.4963 38.3708 33.4963 38.2157V36.4822C33.4963 36.316 33.467 36.1942 33.4082 36.1166C33.3495 36.0354 33.2394 35.9948 33.0778 35.9948V35.8785C33.1953 35.8895 33.3091 35.8951 33.4193 35.8951C33.5257 35.8951 33.6267 35.8895 33.7221 35.8785C33.8212 35.8637 33.9112 35.8434 33.992 35.8175Z" fill="black"/>
<path d="M36.1174 35.8009C36.2642 35.8009 36.3891 35.8249 36.4919 35.8729C36.5947 35.9209 36.6699 35.9652 36.7176 36.0058C36.8388 36.1055 36.9122 36.0391 36.9379 35.8065H37.0646C37.0572 35.9098 37.0517 36.0335 37.048 36.1775C37.0444 36.3178 37.0425 36.508 37.0425 36.748H36.9159C36.8939 36.6114 36.8553 36.4785 36.8002 36.3492C36.7488 36.22 36.6717 36.1148 36.569 36.0335C36.4662 35.9486 36.3322 35.9062 36.167 35.9062C36.0385 35.9062 35.9302 35.9431 35.8421 36.0169C35.7576 36.0871 35.7154 36.1923 35.7154 36.3326C35.7154 36.4434 35.7484 36.5394 35.8145 36.6206C35.8806 36.6982 35.9669 36.772 36.0733 36.8422C36.1798 36.9086 36.2955 36.9825 36.4203 37.0637C36.5598 37.1523 36.6864 37.2428 36.8002 37.3351C36.914 37.4274 37.004 37.5289 37.0701 37.6397C37.1398 37.7505 37.1747 37.8815 37.1747 38.0329C37.1747 38.2028 37.1306 38.3449 37.0425 38.4594C36.9544 38.5738 36.8388 38.6606 36.6956 38.7197C36.5561 38.7788 36.4019 38.8083 36.233 38.8083C36.1523 38.8083 36.0752 38.8009 36.0018 38.7862C35.932 38.7751 35.8641 38.7566 35.798 38.7308C35.7613 38.7123 35.7227 38.6902 35.6824 38.6643C35.6457 38.6385 35.6089 38.6108 35.5722 38.5812C35.5355 38.5517 35.5025 38.5535 35.4731 38.5868C35.4437 38.6163 35.4217 38.6772 35.407 38.7695H35.2804C35.2877 38.6514 35.2932 38.5074 35.2969 38.3375C35.3006 38.1677 35.3024 37.9425 35.3024 37.6618H35.4291C35.4548 37.8686 35.4915 38.0495 35.5392 38.2046C35.5869 38.3597 35.6622 38.4815 35.765 38.5702C35.8678 38.6551 36.0109 38.6975 36.1945 38.6975C36.2679 38.6975 36.3413 38.6809 36.4148 38.6477C36.4919 38.6145 36.5561 38.5591 36.6075 38.4815C36.6589 38.404 36.6846 38.3006 36.6846 38.1714C36.6846 38.0089 36.6259 37.876 36.5084 37.7726C36.3909 37.6692 36.2422 37.5603 36.0623 37.4458C35.9302 37.3609 35.8054 37.276 35.6879 37.1911C35.5741 37.1062 35.4805 37.0102 35.407 36.9031C35.3373 36.796 35.3024 36.6668 35.3024 36.5154C35.3024 36.3492 35.3391 36.2145 35.4125 36.1111C35.4896 36.004 35.5906 35.9265 35.7154 35.8785C35.8402 35.8268 35.9742 35.8009 36.1174 35.8009Z" fill="black"/>
<path d="M38.663 34.4938C38.7584 34.4938 38.841 34.5289 38.9108 34.5991C38.9806 34.6692 39.0154 34.7523 39.0154 34.8483C39.0154 34.9443 38.9806 35.0274 38.9108 35.0975C38.841 35.1677 38.7584 35.2028 38.663 35.2028C38.5675 35.2028 38.4849 35.1677 38.4152 35.0975C38.3454 35.0274 38.3106 34.9443 38.3106 34.8483C38.3106 34.7523 38.3454 34.6692 38.4152 34.5991C38.4849 34.5289 38.5675 34.4938 38.663 34.4938ZM38.9493 35.8175V38.2157C38.9493 38.3708 38.9805 38.476 39.043 38.5314C39.109 38.5868 39.2173 38.6145 39.3679 38.6145V38.7308C39.3055 38.7271 39.21 38.7234 39.0815 38.7197C38.9567 38.7123 38.83 38.7086 38.7015 38.7086C38.5767 38.7086 38.4501 38.7123 38.3216 38.7197C38.1931 38.7234 38.0976 38.7271 38.0352 38.7308V38.6145C38.1857 38.6145 38.2922 38.5868 38.3546 38.5314C38.4207 38.476 38.4537 38.3708 38.4537 38.2157V36.4822C38.4537 36.316 38.4244 36.1942 38.3656 36.1166C38.3069 36.0354 38.1968 35.9948 38.0352 35.9948V35.8785C38.1527 35.8895 38.2665 35.8951 38.3766 35.8951C38.4831 35.8951 38.5841 35.8895 38.6795 35.8785C38.7786 35.8637 38.8686 35.8434 38.9493 35.8175Z" fill="black"/>
<path d="M41.9394 35.8009C42.0789 35.8009 42.1945 35.8194 42.2863 35.8563C42.3817 35.8932 42.4607 35.9449 42.5231 36.0114C42.5928 36.0852 42.6424 36.1775 42.6718 36.2883C42.7011 36.3991 42.7158 36.5486 42.7158 36.7369V38.2157C42.7158 38.3708 42.747 38.476 42.8094 38.5314C42.8755 38.5868 42.9838 38.6145 43.1343 38.6145V38.7308C43.0719 38.7271 42.9765 38.7234 42.848 38.7197C42.7195 38.7123 42.5947 38.7086 42.4735 38.7086C42.3524 38.7086 42.233 38.7123 42.1156 38.7197C42.0018 38.7234 41.9155 38.7271 41.8568 38.7308V38.6145C41.9889 38.6145 42.0825 38.5868 42.1376 38.5314C42.1927 38.476 42.2202 38.3708 42.2202 38.2157V36.6151C42.2202 36.5006 42.211 36.3954 42.1927 36.2994C42.1743 36.2034 42.1321 36.1258 42.066 36.0668C42.0036 36.0077 41.9063 35.9782 41.7741 35.9782C41.62 35.9782 41.4841 36.0225 41.3666 36.1111C41.2528 36.1997 41.1629 36.3215 41.0968 36.4766C41.0344 36.628 41.0032 36.7978 41.0032 36.9862V38.2157C41.0032 38.3708 41.0307 38.476 41.0858 38.5314C41.1409 38.5868 41.2345 38.6145 41.3666 38.6145V38.7308C41.3079 38.7271 41.2198 38.7234 41.1023 38.7197C40.9885 38.7123 40.871 38.7086 40.7499 38.7086C40.6287 38.7086 40.5039 38.7123 40.3754 38.7197C40.2469 38.7234 40.1515 38.7271 40.0891 38.7308V38.6145C40.2396 38.6145 40.3461 38.5868 40.4085 38.5314C40.4746 38.476 40.5076 38.3708 40.5076 38.2157V36.4822C40.5076 36.316 40.4782 36.1942 40.4195 36.1166C40.3607 36.0354 40.2506 35.9948 40.0891 35.9948V35.8785C40.2066 35.8895 40.3204 35.8951 40.4305 35.8951C40.537 35.8951 40.6379 35.8895 40.7334 35.8785C40.8325 35.8637 40.9224 35.8434 41.0032 35.8175V36.4711C41.0987 36.22 41.2308 36.0465 41.3997 35.9505C41.5722 35.8508 41.7521 35.8009 41.9394 35.8009Z" fill="black"/>
<path d="M45.1535 35.8009C45.4766 35.8009 45.7281 35.9006 45.908 36.1C46.0915 36.2957 46.1833 36.6022 46.1833 37.0194H44.2394L44.2339 36.9142H45.6547C45.662 36.7332 45.6473 36.5671 45.6106 36.4157C45.5739 36.2606 45.5152 36.1369 45.4344 36.0446C45.3573 35.9523 45.2563 35.9062 45.1315 35.9062C44.9626 35.9062 44.8121 35.9911 44.68 36.1609C44.5515 36.3308 44.4744 36.6003 44.4487 36.9695L44.4652 36.9917C44.4579 37.0471 44.4524 37.108 44.4487 37.1745C44.445 37.2409 44.4432 37.3074 44.4432 37.3738C44.4432 37.6249 44.4836 37.8409 44.5643 38.0218C44.6451 38.2028 44.7497 38.3412 44.8782 38.4372C45.0104 38.5295 45.1462 38.5757 45.2857 38.5757C45.3958 38.5757 45.5005 38.5591 45.5996 38.5258C45.6987 38.4889 45.7905 38.4298 45.8749 38.3486C45.9594 38.2674 46.0328 38.1585 46.0952 38.0218L46.2053 38.0662C46.165 38.188 46.0989 38.3062 46.0071 38.4206C45.9153 38.5351 45.7997 38.6292 45.6602 38.7031C45.5207 38.7732 45.3591 38.8083 45.1756 38.8083C44.9112 38.8083 44.6836 38.7474 44.4927 38.6255C44.3055 38.5037 44.1605 38.3357 44.0577 38.1215C43.9586 37.9037 43.909 37.6545 43.909 37.3738C43.909 37.0489 43.9604 36.7702 44.0632 36.5375C44.166 36.3012 44.311 36.1203 44.4982 35.9948C44.6855 35.8655 44.9039 35.8009 45.1535 35.8009Z" fill="black"/>
<path d="M48.7542 35.8009C48.8533 35.8009 48.9396 35.8212 49.013 35.8618C49.0901 35.9025 49.1489 35.956 49.1892 36.0225C49.2333 36.0852 49.2553 36.1572 49.2553 36.2385C49.2553 36.3308 49.2259 36.412 49.1672 36.4822C49.1121 36.5523 49.0369 36.5874 48.9414 36.5874C48.8643 36.5874 48.7964 36.5634 48.7377 36.5154C48.6789 36.4637 48.6496 36.3917 48.6496 36.2994C48.6496 36.2292 48.6679 36.1702 48.7046 36.1222C48.745 36.0705 48.7891 36.0298 48.8368 36.0003C48.8111 35.9634 48.7726 35.9449 48.7212 35.9449C48.6074 35.9449 48.5027 35.98 48.4073 36.0502C48.3118 36.1166 48.2311 36.2034 48.165 36.3105C48.0989 36.4175 48.0475 36.532 48.0108 36.6538C47.9741 36.772 47.9557 36.8828 47.9557 36.9862V38.1603C47.9557 38.3412 48.0071 38.4631 48.1099 38.5258C48.2164 38.5849 48.3595 38.6145 48.5394 38.6145V38.7308C48.455 38.7271 48.3357 38.7234 48.1815 38.7197C48.0273 38.7123 47.8639 38.7086 47.6914 38.7086C47.5666 38.7086 47.4418 38.7123 47.3169 38.7197C47.1958 38.7234 47.104 38.7271 47.0416 38.7308V38.6145C47.1921 38.6145 47.2986 38.5868 47.361 38.5314C47.4271 38.476 47.4601 38.3708 47.4601 38.2157V36.4822C47.4601 36.316 47.4307 36.1942 47.372 36.1166C47.3133 36.0354 47.2031 35.9948 47.0416 35.9948V35.8785C47.1591 35.8895 47.2729 35.8951 47.383 35.8951C47.4895 35.8951 47.5904 35.8895 47.6859 35.8785C47.785 35.8637 47.875 35.8434 47.9557 35.8175V36.5098C47.9961 36.4028 48.053 36.2957 48.1264 36.1886C48.2035 36.0778 48.2953 35.9855 48.4018 35.9117C48.5082 35.8378 48.6257 35.8009 48.7542 35.8009Z" fill="black"/>
<path d="M53.4782 35.8009C53.6177 35.8009 53.7333 35.8194 53.8251 35.8563C53.9206 35.8932 53.9995 35.9449 54.0619 36.0114C54.1317 36.0852 54.1812 36.1775 54.2106 36.2883C54.24 36.3991 54.2547 36.5486 54.2547 36.7369V38.2157C54.2547 38.3708 54.2859 38.476 54.3483 38.5314C54.4143 38.5868 54.5226 38.6145 54.6732 38.6145V38.7308C54.6108 38.7271 54.5153 38.7234 54.3868 38.7197C54.2583 38.7123 54.1335 38.7086 54.0124 38.7086C53.8912 38.7086 53.7719 38.7123 53.6544 38.7197C53.5406 38.7234 53.4543 38.7271 53.3956 38.7308V38.6145C53.5278 38.6145 53.6214 38.5868 53.6764 38.5314C53.7315 38.476 53.759 38.3708 53.759 38.2157V36.6151C53.759 36.5006 53.7499 36.3954 53.7315 36.2994C53.7131 36.2034 53.6709 36.1258 53.6049 36.0668C53.5424 36.0077 53.4452 35.9782 53.313 35.9782C53.1588 35.9782 53.023 36.0225 52.9055 36.1111C52.7917 36.1997 52.7017 36.3215 52.6357 36.4766C52.5732 36.628 52.542 36.7978 52.542 36.9862V38.2157C52.542 38.3708 52.5696 38.476 52.6246 38.5314C52.6797 38.5868 52.7733 38.6145 52.9055 38.6145V38.7308C52.8468 38.7271 52.7586 38.7234 52.6412 38.7197C52.5274 38.7123 52.4099 38.7086 52.2887 38.7086C52.1676 38.7086 52.0428 38.7123 51.9143 38.7197C51.7858 38.7234 51.6903 38.7271 51.6279 38.7308V38.6145C51.7784 38.6145 51.8849 38.5868 51.9473 38.5314C52.0134 38.476 52.0464 38.3708 52.0464 38.2157V36.4822C52.0464 36.316 52.0171 36.1942 51.9583 36.1166C51.8996 36.0354 51.7895 35.9948 51.6279 35.9948V35.8785C51.7454 35.8895 51.8592 35.8951 51.9693 35.8951C52.0758 35.8951 52.1768 35.8895 52.2722 35.8785C52.3713 35.8637 52.4613 35.8434 52.542 35.8175V36.4711C52.6375 36.22 52.7697 36.0465 52.9385 35.9505C53.1111 35.8508 53.291 35.8009 53.4782 35.8009Z" fill="black"/>
<path d="M55.7207 34.732C55.8014 34.732 55.8675 34.7486 55.9189 34.7818C55.9703 34.8151 56.0125 34.8575 56.0456 34.9092C56.0859 34.9683 56.1116 35.0329 56.1227 35.1031C56.1337 35.1732 56.1392 35.2305 56.1392 35.2748C56.1392 35.4557 56.0933 35.62 56.0015 35.7677C55.9097 35.9154 55.7665 36.0354 55.572 36.1277L55.5224 36.028C55.6362 35.98 55.7335 35.9043 55.8143 35.8009C55.8987 35.6975 55.9409 35.5923 55.9409 35.4852C55.9409 35.4409 55.9354 35.4022 55.9244 35.3689C55.8657 35.4169 55.7978 35.4409 55.7207 35.4409C55.6252 35.4409 55.5426 35.4095 55.4729 35.3468C55.4031 35.284 55.3682 35.1972 55.3682 35.0865C55.3682 34.9831 55.4031 34.8982 55.4729 34.8317C55.5426 34.7652 55.6252 34.732 55.7207 34.732Z" fill="black"/>
<path d="M57.6093 38.7695C57.4587 38.7695 57.3284 38.7418 57.2183 38.6865C57.1082 38.6274 57.0237 38.5462 56.965 38.4428C56.9099 38.3394 56.8824 38.2194 56.8824 38.0828C56.8824 37.9203 56.9191 37.7874 56.9925 37.684C57.0696 37.5806 57.1669 37.4975 57.2844 37.4348C57.4018 37.372 57.5248 37.3203 57.6533 37.2797C57.7855 37.2354 57.9103 37.1948 58.0278 37.1578C58.1453 37.1172 58.2407 37.0711 58.3141 37.0194C58.3912 36.9677 58.4298 36.8994 58.4298 36.8145V36.4711C58.4298 36.316 58.4059 36.1978 58.3582 36.1166C58.3141 36.0354 58.2536 35.9818 58.1765 35.956C58.0994 35.9265 58.0131 35.9117 57.9176 35.9117C57.8259 35.9117 57.7267 35.9246 57.6203 35.9505C57.5175 35.9763 57.4349 36.0298 57.3725 36.1111C57.4422 36.1258 57.5028 36.1628 57.5542 36.2218C57.6056 36.2809 57.6313 36.3566 57.6313 36.4489C57.6313 36.5412 57.6019 36.6151 57.5432 36.6705C57.4844 36.7222 57.4092 36.748 57.3174 36.748C57.2109 36.748 57.132 36.7148 57.0806 36.6483C57.0329 36.5782 57.009 36.5006 57.009 36.4157C57.009 36.3197 57.0329 36.2422 57.0806 36.1831C57.1283 36.124 57.1889 36.0686 57.2623 36.0169C57.3468 35.9578 57.4551 35.908 57.5872 35.8674C57.7231 35.8231 57.8754 35.8009 58.0443 35.8009C58.1948 35.8009 58.3233 35.8194 58.4298 35.8563C58.5362 35.8895 58.6243 35.9394 58.6941 36.0058C58.7896 36.0945 58.852 36.2034 58.8813 36.3326C58.9107 36.4582 58.9254 36.6095 58.9254 36.7868V38.3265C58.9254 38.4188 58.9382 38.4852 58.9639 38.5258C58.9933 38.5665 59.0374 38.5868 59.0961 38.5868C59.1365 38.5868 59.175 38.5775 59.2117 38.5591C59.2484 38.5406 59.2925 38.5111 59.3439 38.4705L59.4045 38.5646C59.3274 38.6237 59.254 38.6735 59.1842 38.7142C59.1145 38.7511 59.0208 38.7695 58.9034 38.7695C58.7969 38.7695 58.7088 38.7511 58.639 38.7142C58.5693 38.6772 58.516 38.6237 58.4793 38.5535C58.4463 38.4797 58.4298 38.3874 58.4298 38.2766C58.3307 38.4428 58.2113 38.5665 58.0718 38.6477C57.936 38.7289 57.7818 38.7695 57.6093 38.7695ZM57.8075 38.548C57.9287 38.548 58.0406 38.5129 58.1434 38.4428C58.2499 38.3726 58.3453 38.2674 58.4298 38.1271V37.0415C58.3857 37.1043 58.3215 37.1578 58.237 37.2022C58.1526 37.2428 58.0608 37.2852 57.9617 37.3295C57.8626 37.3702 57.7671 37.42 57.6753 37.4791C57.5872 37.5345 57.5138 37.6083 57.4551 37.7006C57.3963 37.7929 57.367 37.9129 57.367 38.0606C57.367 38.2083 57.4055 38.3265 57.4826 38.4151C57.5634 38.5037 57.6717 38.548 57.8075 38.548Z" fill="black"/>
<path d="M61.4549 39.772V39.6889C61.6825 39.6778 61.8533 39.5782 61.9671 39.3898C62.0809 39.2052 62.1378 38.9505 62.1378 38.6255V36.4822C62.1378 36.316 62.1084 36.1942 62.0497 36.1166C61.9909 36.0354 61.8808 35.9948 61.7193 35.9948V35.8785C61.8367 35.8895 61.9505 35.8951 62.0607 35.8951C62.1671 35.8951 62.2681 35.8895 62.3635 35.8785C62.4627 35.8637 62.5526 35.8434 62.6334 35.8175V38.0938C62.6334 38.2785 62.6205 38.4538 62.5948 38.62C62.5691 38.7862 62.5269 38.9375 62.4682 39.0742C62.4094 39.2108 62.3323 39.3308 62.2369 39.4342C62.1451 39.5338 62.0313 39.6151 61.8955 39.6778C61.7633 39.7406 61.6165 39.772 61.4549 39.772ZM62.336 34.4938C62.4315 34.4938 62.5141 34.5289 62.5838 34.5991C62.6536 34.6692 62.6884 34.7523 62.6884 34.8483C62.6884 34.9443 62.6536 35.0274 62.5838 35.0975C62.5141 35.1677 62.4315 35.2028 62.336 35.2028C62.2406 35.2028 62.158 35.1677 62.0882 35.0975C62.0185 35.0274 61.9836 34.9443 61.9836 34.8483C61.9836 34.7523 62.0185 34.6692 62.0882 34.5991C62.158 34.5289 62.2406 34.4938 62.336 34.4938Z" fill="black"/>
<path d="M64.4484 38.7695C64.2979 38.7695 64.1676 38.7418 64.0574 38.6865C63.9473 38.6274 63.8629 38.5462 63.8041 38.4428C63.7491 38.3394 63.7215 38.2194 63.7215 38.0828C63.7215 37.9203 63.7582 37.7874 63.8317 37.684C63.9088 37.5806 64.006 37.4975 64.1235 37.4348C64.241 37.372 64.364 37.3203 64.4925 37.2797C64.6246 37.2354 64.7495 37.1948 64.8669 37.1578C64.9844 37.1172 65.0799 37.0711 65.1533 37.0194C65.2304 36.9677 65.2689 36.8994 65.2689 36.8145V36.4711C65.2689 36.316 65.2451 36.1978 65.1973 36.1166C65.1533 36.0354 65.0927 35.9818 65.0156 35.956C64.9385 35.9265 64.8522 35.9117 64.7568 35.9117C64.665 35.9117 64.5659 35.9246 64.4594 35.9505C64.3566 35.9763 64.274 36.0298 64.2116 36.1111C64.2814 36.1258 64.342 36.1628 64.3934 36.2218C64.4447 36.2809 64.4705 36.3566 64.4705 36.4489C64.4705 36.5412 64.4411 36.6151 64.3823 36.6705C64.3236 36.7222 64.2483 36.748 64.1566 36.748C64.0501 36.748 63.9712 36.7148 63.9198 36.6483C63.872 36.5782 63.8482 36.5006 63.8482 36.4157C63.8482 36.3197 63.872 36.2422 63.9198 36.1831C63.9675 36.124 64.0281 36.0686 64.1015 36.0169C64.1859 35.9578 64.2942 35.908 64.4264 35.8674C64.5622 35.8231 64.7146 35.8009 64.8835 35.8009C65.034 35.8009 65.1625 35.8194 65.2689 35.8563C65.3754 35.8895 65.4635 35.9394 65.5333 36.0058C65.6287 36.0945 65.6911 36.2034 65.7205 36.3326C65.7499 36.4582 65.7645 36.6095 65.7645 36.7868V38.3265C65.7645 38.4188 65.7774 38.4852 65.8031 38.5258C65.8325 38.5665 65.8765 38.5868 65.9352 38.5868C65.9756 38.5868 66.0142 38.5775 66.0509 38.5591C66.0876 38.5406 66.1317 38.5111 66.1831 38.4705L66.2436 38.5646C66.1665 38.6237 66.0931 38.6735 66.0234 38.7142C65.9536 38.7511 65.86 38.7695 65.7425 38.7695C65.6361 38.7695 65.5479 38.7511 65.4782 38.7142C65.4084 38.6772 65.3552 38.6237 65.3185 38.5535C65.2855 38.4797 65.2689 38.3874 65.2689 38.2766C65.1698 38.4428 65.0505 38.5665 64.911 38.6477C64.7752 38.7289 64.621 38.7695 64.4484 38.7695ZM64.6467 38.548C64.7678 38.548 64.8798 38.5129 64.9826 38.4428C65.089 38.3726 65.1845 38.2674 65.2689 38.1271V37.0415C65.2249 37.1043 65.1606 37.1578 65.0762 37.2022C64.9918 37.2428 64.9 37.2852 64.8009 37.3295C64.7017 37.3702 64.6063 37.42 64.5145 37.4791C64.4264 37.5345 64.353 37.6083 64.2942 37.7006C64.2355 37.7929 64.2061 37.9129 64.2061 38.0606C64.2061 38.2083 64.2447 38.3265 64.3218 38.4151C64.4025 38.5037 64.5108 38.548 64.6467 38.548Z" fill="black"/>
<path d="M68.6669 35.8009C68.7954 35.8009 68.9073 35.8194 69.0028 35.8563C69.0982 35.8932 69.1772 35.9449 69.2396 36.0114C69.3093 36.0852 69.3571 36.1812 69.3827 36.2994C69.4084 36.4175 69.4213 36.5634 69.4213 36.7369V38.2157C69.4213 38.3708 69.4525 38.476 69.5149 38.5314C69.581 38.5868 69.6893 38.6145 69.8398 38.6145V38.7308C69.7774 38.7271 69.682 38.7234 69.5535 38.7197C69.425 38.7123 69.3001 38.7086 69.179 38.7086C69.0579 38.7086 68.9385 38.7123 68.8211 38.7197C68.7073 38.7234 68.621 38.7271 68.5622 38.7308V38.6145C68.6944 38.6145 68.788 38.5868 68.8431 38.5314C68.8982 38.476 68.9257 38.3708 68.9257 38.2157V36.6151C68.9257 36.5006 68.9183 36.3954 68.9037 36.2994C68.889 36.2034 68.8523 36.1258 68.7935 36.0668C68.7348 36.0077 68.6393 35.9782 68.5072 35.9782C68.364 35.9782 68.2355 36.0225 68.1217 36.1111C68.0116 36.1997 67.9235 36.3215 67.8574 36.4766C67.795 36.628 67.7638 36.7978 67.7638 36.9862V38.2157C67.7638 38.3708 67.7913 38.476 67.8464 38.5314C67.9014 38.5868 67.995 38.6145 68.1272 38.6145V38.7308C68.0685 38.7271 67.9804 38.7234 67.8629 38.7197C67.7491 38.7123 67.6316 38.7086 67.5104 38.7086C67.3893 38.7086 67.2645 38.7123 67.136 38.7197C67.0075 38.7234 66.912 38.7271 66.8496 38.7308V38.6145C67.0002 38.6145 67.1066 38.5868 67.169 38.5314C67.2351 38.476 67.2681 38.3708 67.2681 38.2157V36.4822C67.2681 36.316 67.2388 36.1942 67.18 36.1166C67.1213 36.0354 67.0112 35.9948 66.8496 35.9948V35.8785C66.9671 35.8895 67.0809 35.8951 67.1911 35.8951C67.2975 35.8951 67.3985 35.8895 67.4939 35.8785C67.593 35.8637 67.683 35.8434 67.7638 35.8175V36.4711C67.8592 36.2311 67.9895 36.0594 68.1547 35.956C68.3199 35.8526 68.4907 35.8009 68.6669 35.8009ZM70.3244 35.8009C70.4529 35.8009 70.5649 35.8194 70.6603 35.8563C70.7558 35.8932 70.8347 35.9449 70.8971 36.0114C70.9669 36.0852 71.0146 36.1812 71.0403 36.2994C71.066 36.4175 71.0788 36.5634 71.0788 36.7369V38.2157C71.0788 38.3708 71.11 38.476 71.1724 38.5314C71.2385 38.5868 71.3468 38.6145 71.4973 38.6145V38.7308C71.4349 38.7271 71.3395 38.7234 71.211 38.7197C71.0825 38.7123 70.9577 38.7086 70.8365 38.7086C70.7154 38.7086 70.5961 38.7123 70.4786 38.7197C70.3648 38.7234 70.2785 38.7271 70.2198 38.7308V38.6145C70.3519 38.6145 70.4456 38.5868 70.5006 38.5314C70.5557 38.476 70.5832 38.3708 70.5832 38.2157V36.6151C70.5832 36.5006 70.5759 36.3954 70.5612 36.2994C70.5465 36.2034 70.5098 36.1258 70.4511 36.0668C70.3923 36.0077 70.2969 35.9782 70.1647 35.9782C70.0215 35.9782 69.893 36.0225 69.7792 36.1111C69.6691 36.1997 69.581 36.3197 69.5149 36.4711C69.4525 36.6225 69.4213 36.7923 69.4213 36.9806L69.4048 36.4655C69.5039 36.2108 69.6379 36.0372 69.8068 35.9449C69.9756 35.8489 70.1482 35.8009 70.3244 35.8009Z" fill="black"/>
<path d="M72.9605 38.7695C72.81 38.7695 72.6796 38.7418 72.5695 38.6865C72.4594 38.6274 72.3749 38.5462 72.3162 38.4428C72.2611 38.3394 72.2336 38.2194 72.2336 38.0828C72.2336 37.9203 72.2703 37.7874 72.3437 37.684C72.4208 37.5806 72.5181 37.4975 72.6356 37.4348C72.7531 37.372 72.876 37.3203 73.0045 37.2797C73.1367 37.2354 73.2615 37.1948 73.379 37.1578C73.4965 37.1172 73.5919 37.0711 73.6653 37.0194C73.7424 36.9677 73.781 36.8994 73.781 36.8145V36.4711C73.781 36.316 73.7571 36.1978 73.7094 36.1166C73.6653 36.0354 73.6048 35.9818 73.5277 35.956C73.4506 35.9265 73.3643 35.9117 73.2689 35.9117C73.1771 35.9117 73.078 35.9246 72.9715 35.9505C72.8687 35.9763 72.7861 36.0298 72.7237 36.1111C72.7934 36.1258 72.854 36.1628 72.9054 36.2218C72.9568 36.2809 72.9825 36.3566 72.9825 36.4489C72.9825 36.5412 72.9531 36.6151 72.8944 36.6705C72.8357 36.7222 72.7604 36.748 72.6686 36.748C72.5621 36.748 72.4832 36.7148 72.4318 36.6483C72.3841 36.5782 72.3602 36.5006 72.3602 36.4157C72.3602 36.3197 72.3841 36.2422 72.4318 36.1831C72.4795 36.124 72.5401 36.0686 72.6135 36.0169C72.698 35.9578 72.8063 35.908 72.9384 35.8674C73.0743 35.8231 73.2266 35.8009 73.3955 35.8009C73.546 35.8009 73.6745 35.8194 73.781 35.8563C73.8874 35.8895 73.9756 35.9394 74.0453 36.0058C74.1408 36.0945 74.2032 36.2034 74.2325 36.3326C74.2619 36.4582 74.2766 36.6095 74.2766 36.7868V38.3265C74.2766 38.4188 74.2894 38.4852 74.3151 38.5258C74.3445 38.5665 74.3886 38.5868 74.4473 38.5868C74.4877 38.5868 74.5262 38.5775 74.5629 38.5591C74.5997 38.5406 74.6437 38.5111 74.6951 38.4705L74.7557 38.5646C74.6786 38.6237 74.6052 38.6735 74.5354 38.7142C74.4657 38.7511 74.372 38.7695 74.2546 38.7695C74.1481 38.7695 74.06 38.7511 73.9902 38.7142C73.9205 38.6772 73.8673 38.6237 73.8305 38.5535C73.7975 38.4797 73.781 38.3874 73.781 38.2766C73.6819 38.4428 73.5625 38.5665 73.423 38.6477C73.2872 38.7289 73.133 38.7695 72.9605 38.7695ZM73.1587 38.548C73.2799 38.548 73.3918 38.5129 73.4946 38.4428C73.6011 38.3726 73.6965 38.2674 73.781 38.1271V37.0415C73.7369 37.1043 73.6727 37.1578 73.5882 37.2022C73.5038 37.2428 73.412 37.2852 73.3129 37.3295C73.2138 37.3702 73.1183 37.42 73.0266 37.4791C72.9384 37.5345 72.865 37.6083 72.8063 37.7006C72.7475 37.7929 72.7182 37.9129 72.7182 38.0606C72.7182 38.2083 72.7567 38.3265 72.8338 38.4151C72.9146 38.5037 73.0229 38.548 73.1587 38.548Z" fill="black"/>
<path d="M75.9895 34.4938C76.0849 34.4938 76.1675 34.5289 76.2373 34.5991C76.307 34.6692 76.3419 34.7523 76.3419 34.8483C76.3419 34.9443 76.307 35.0274 76.2373 35.0975C76.1675 35.1677 76.0849 35.2028 75.9895 35.2028C75.894 35.2028 75.8114 35.1677 75.7417 35.0975C75.6719 35.0274 75.637 34.9443 75.637 34.8483C75.637 34.7523 75.6719 34.6692 75.7417 34.5991C75.8114 34.5289 75.894 34.4938 75.9895 34.4938ZM76.2758 35.8175V38.2157C76.2758 38.3708 76.307 38.476 76.3694 38.5314C76.4355 38.5868 76.5438 38.6145 76.6943 38.6145V38.7308C76.6319 38.7271 76.5365 38.7234 76.408 38.7197C76.2832 38.7123 76.1565 38.7086 76.028 38.7086C75.9032 38.7086 75.7765 38.7123 75.648 38.7197C75.5195 38.7234 75.4241 38.7271 75.3617 38.7308V38.6145C75.5122 38.6145 75.6187 38.5868 75.6811 38.5314C75.7472 38.476 75.7802 38.3708 75.7802 38.2157V36.4822C75.7802 36.316 75.7508 36.1942 75.6921 36.1166C75.6334 36.0354 75.5232 35.9948 75.3617 35.9948V35.8785C75.4792 35.8895 75.593 35.8951 75.7031 35.8951C75.8096 35.8951 75.9105 35.8895 76.006 35.8785C76.1051 35.8637 76.195 35.8434 76.2758 35.8175Z" fill="black"/>
<path d="M78.4013 35.8009C78.5481 35.8009 78.6729 35.8249 78.7757 35.8729C78.8785 35.9209 78.9538 35.9652 79.0015 36.0058C79.1226 36.1055 79.1961 36.0391 79.2218 35.8065H79.3484C79.3411 35.9098 79.3356 36.0335 79.3319 36.1775C79.3282 36.3178 79.3264 36.508 79.3264 36.748H79.1997C79.1777 36.6114 79.1392 36.4785 79.0841 36.3492C79.0327 36.22 78.9556 36.1148 78.8528 36.0335C78.75 35.9486 78.616 35.9062 78.4508 35.9062C78.3223 35.9062 78.214 35.9431 78.1259 36.0169C78.0415 36.0871 77.9993 36.1923 77.9993 36.3326C77.9993 36.4434 78.0323 36.5394 78.0984 36.6206C78.1645 36.6982 78.2507 36.772 78.3572 36.8422C78.4637 36.9086 78.5793 36.9825 78.7041 37.0637C78.8436 37.1523 78.9703 37.2428 79.0841 37.3351C79.1979 37.4274 79.2878 37.5289 79.3539 37.6397C79.4237 37.7505 79.4586 37.8815 79.4586 38.0329C79.4586 38.2028 79.4145 38.3449 79.3264 38.4594C79.2383 38.5738 79.1226 38.6606 78.9795 38.7197C78.84 38.7788 78.6858 38.8083 78.5169 38.8083C78.4361 38.8083 78.359 38.8009 78.2856 38.7862C78.2159 38.7751 78.1479 38.7566 78.0819 38.7308C78.0451 38.7123 78.0066 38.6902 77.9662 38.6643C77.9295 38.6385 77.8928 38.6108 77.8561 38.5812C77.8194 38.5517 77.7863 38.5535 77.757 38.5868C77.7276 38.6163 77.7056 38.6772 77.6909 38.7695H77.5642C77.5716 38.6514 77.5771 38.5074 77.5807 38.3375C77.5844 38.1677 77.5863 37.9425 77.5863 37.6618H77.7129C77.7386 37.8686 77.7753 38.0495 77.823 38.2046C77.8708 38.3597 77.946 38.4815 78.0488 38.5702C78.1516 38.6551 78.2948 38.6975 78.4783 38.6975C78.5518 38.6975 78.6252 38.6809 78.6986 38.6477C78.7757 38.6145 78.84 38.5591 78.8914 38.4815C78.9428 38.404 78.9685 38.3006 78.9685 38.1714C78.9685 38.0089 78.9097 37.876 78.7922 37.7726C78.6748 37.6692 78.5261 37.5603 78.3462 37.4458C78.214 37.3609 78.0892 37.276 77.9717 37.1911C77.8579 37.1062 77.7643 37.0102 77.6909 36.9031C77.6211 36.796 77.5863 36.6668 77.5863 36.5154C77.5863 36.3492 77.623 36.2145 77.6964 36.1111C77.7735 36.004 77.8744 35.9265 77.9993 35.8785C78.1241 35.8268 78.2581 35.8009 78.4013 35.8009Z" fill="black"/>
<path d="M83.4691 35.8009C83.7921 35.8009 84.0436 35.9006 84.2235 36.1C84.4071 36.2957 84.4989 36.6022 84.4989 37.0194H82.555L82.5494 36.9142H83.9702C83.9775 36.7332 83.9629 36.5671 83.9261 36.4157C83.8894 36.2606 83.8307 36.1369 83.7499 36.0446C83.6728 35.9523 83.5719 35.9062 83.4471 35.9062C83.2782 35.9062 83.1277 35.9911 82.9955 36.1609C82.867 36.3308 82.7899 36.6003 82.7642 36.9695L82.7807 36.9917C82.7734 37.0471 82.7679 37.108 82.7642 37.1745C82.7605 37.2409 82.7587 37.3074 82.7587 37.3738C82.7587 37.6249 82.7991 37.8409 82.8799 38.0218C82.9606 38.2028 83.0653 38.3412 83.1937 38.4372C83.3259 38.5295 83.4617 38.5757 83.6012 38.5757C83.7114 38.5757 83.816 38.5591 83.9151 38.5258C84.0143 38.4889 84.106 38.4298 84.1905 38.3486C84.2749 38.2674 84.3483 38.1585 84.4107 38.0218L84.5209 38.0662C84.4805 38.188 84.4144 38.3062 84.3226 38.4206C84.2309 38.5351 84.1152 38.6292 83.9757 38.7031C83.8362 38.7732 83.6747 38.8083 83.4911 38.8083C83.2268 38.8083 82.9992 38.7474 82.8083 38.6255C82.621 38.5037 82.476 38.3357 82.3732 38.1215C82.2741 37.9037 82.2245 37.6545 82.2245 37.3738C82.2245 37.0489 82.2759 36.7702 82.3787 36.5375C82.4815 36.3012 82.6265 36.1203 82.8138 35.9948C83.001 35.8655 83.2194 35.8009 83.4691 35.8009ZM84.0528 34.228C84.0969 34.2649 84.1207 34.3129 84.1244 34.372C84.1317 34.4311 84.1079 34.4975 84.0528 34.5714C83.9977 34.6415 83.9298 34.7117 83.849 34.7818C83.7683 34.852 83.6728 34.9369 83.5627 35.0366C83.4562 35.1326 83.3296 35.2582 83.1827 35.4132L83.1222 35.3634C83.236 35.1825 83.3259 35.0274 83.392 34.8982C83.4617 34.7689 83.5205 34.6563 83.5682 34.5603C83.6159 34.4643 83.6673 34.3812 83.7224 34.3111C83.7775 34.2372 83.8344 34.1966 83.8931 34.1892C83.9555 34.1818 84.0087 34.1948 84.0528 34.228Z" fill="black"/>
<path d="M86.2437 34.9591V35.884H87.0587V35.9948H86.2437V38.1382C86.2437 38.3117 86.2749 38.4335 86.3373 38.5037C86.3997 38.5738 86.486 38.6089 86.5962 38.6089C86.7063 38.6089 86.8017 38.5646 86.8825 38.476C86.9633 38.3837 87.033 38.2305 87.0918 38.0163L87.2019 38.044C87.1652 38.2582 87.0918 38.4391 86.9816 38.5868C86.8752 38.7345 86.71 38.8083 86.486 38.8083C86.3612 38.8083 86.2584 38.7917 86.1776 38.7585C86.0969 38.7289 86.0253 38.6846 85.9629 38.6255C85.8821 38.5406 85.8252 38.4391 85.7922 38.3209C85.7628 38.2028 85.7481 38.0458 85.7481 37.8502V35.9948H85.2195V35.884H85.7481V35.0366C85.8399 35.0329 85.928 35.0255 86.0124 35.0145C86.0969 35.0034 86.174 34.9849 86.2437 34.9591Z" fill="black"/>
<path d="M89.0825 35.8009C89.4056 35.8009 89.6571 35.9006 89.837 36.1C90.0205 36.2957 90.1123 36.6022 90.1123 37.0194H88.1684L88.1629 36.9142H89.5837C89.591 36.7332 89.5763 36.5671 89.5396 36.4157C89.5029 36.2606 89.4442 36.1369 89.3634 36.0446C89.2863 35.9523 89.1853 35.9062 89.0605 35.9062C88.8916 35.9062 88.7411 35.9911 88.609 36.1609C88.4805 36.3308 88.4034 36.6003 88.3777 36.9695L88.3942 36.9917C88.3869 37.0471 88.3813 37.108 88.3777 37.1745C88.374 37.2409 88.3722 37.3074 88.3722 37.3738C88.3722 37.6249 88.4126 37.8409 88.4933 38.0218C88.5741 38.2028 88.6787 38.3412 88.8072 38.4372C88.9394 38.5295 89.0752 38.5757 89.2147 38.5757C89.3248 38.5757 89.4295 38.5591 89.5286 38.5258C89.6277 38.4889 89.7195 38.4298 89.8039 38.3486C89.8884 38.2674 89.9618 38.1585 90.0242 38.0218L90.1343 38.0662C90.094 38.188 90.0279 38.3062 89.9361 38.4206C89.8443 38.5351 89.7287 38.6292 89.5892 38.7031C89.4497 38.7732 89.2881 38.8083 89.1046 38.8083C88.8402 38.8083 88.6126 38.7474 88.4217 38.6255C88.2345 38.5037 88.0895 38.3357 87.9867 38.1215C87.8876 37.9037 87.838 37.6545 87.838 37.3738C87.838 37.0489 87.8894 36.7702 87.9922 36.5375C88.095 36.3012 88.24 36.1203 88.4272 35.9948C88.6145 35.8655 88.8329 35.8009 89.0825 35.8009ZM89.6663 34.228C89.7103 34.2649 89.7342 34.3129 89.7379 34.372C89.7452 34.4311 89.7213 34.4975 89.6663 34.5714C89.6112 34.6415 89.5433 34.7117 89.4625 34.7818C89.3817 34.852 89.2863 34.9369 89.1762 35.0366C89.0697 35.1326 88.943 35.2582 88.7962 35.4132L88.7356 35.3634C88.8494 35.1825 88.9394 35.0274 89.0055 34.8982C89.0752 34.7689 89.1339 34.6563 89.1817 34.5603C89.2294 34.4643 89.2808 34.3812 89.3359 34.3111C89.3909 34.2372 89.4478 34.1966 89.5066 34.1892C89.569 34.1818 89.6222 34.1948 89.6663 34.228Z" fill="black"/>
<path d="M93.5644 38.7695C93.4139 38.7695 93.2836 38.7418 93.1734 38.6865C93.0633 38.6274 92.9789 38.5462 92.9201 38.4428C92.8651 38.3394 92.8375 38.2194 92.8375 38.0828C92.8375 37.9203 92.8742 37.7874 92.9477 37.684C93.0248 37.5806 93.122 37.4975 93.2395 37.4348C93.357 37.372 93.48 37.3203 93.6085 37.2797C93.7406 37.2354 93.8655 37.1948 93.9829 37.1578C94.1004 37.1172 94.1959 37.0711 94.2693 37.0194C94.3464 36.9677 94.3849 36.8994 94.3849 36.8145V36.4711C94.3849 36.316 94.3611 36.1978 94.3133 36.1166C94.2693 36.0354 94.2087 35.9818 94.1316 35.956C94.0545 35.9265 93.9682 35.9117 93.8728 35.9117C93.781 35.9117 93.6819 35.9246 93.5754 35.9505C93.4726 35.9763 93.39 36.0298 93.3276 36.1111C93.3974 36.1258 93.458 36.1628 93.5093 36.2218C93.5607 36.2809 93.5864 36.3566 93.5864 36.4489C93.5864 36.5412 93.5571 36.6151 93.4983 36.6705C93.4396 36.7222 93.3643 36.748 93.2726 36.748C93.1661 36.748 93.0872 36.7148 93.0358 36.6483C92.988 36.5782 92.9642 36.5006 92.9642 36.4157C92.9642 36.3197 92.988 36.2422 93.0358 36.1831C93.0835 36.124 93.1441 36.0686 93.2175 36.0169C93.3019 35.9578 93.4102 35.908 93.5424 35.8674C93.6782 35.8231 93.8306 35.8009 93.9995 35.8009C94.15 35.8009 94.2785 35.8194 94.3849 35.8563C94.4914 35.8895 94.5795 35.9394 94.6492 36.0058C94.7447 36.0945 94.8071 36.2034 94.8365 36.3326C94.8658 36.4582 94.8805 36.6095 94.8805 36.7868V38.3265C94.8805 38.4188 94.8934 38.4852 94.9191 38.5258C94.9485 38.5665 94.9925 38.5868 95.0512 38.5868C95.0916 38.5868 95.1302 38.5775 95.1669 38.5591C95.2036 38.5406 95.2477 38.5111 95.299 38.4705L95.3596 38.5646C95.2825 38.6237 95.2091 38.6735 95.1394 38.7142C95.0696 38.7511 94.976 38.7695 94.8585 38.7695C94.752 38.7695 94.6639 38.7511 94.5942 38.7142C94.5244 38.6772 94.4712 38.6237 94.4345 38.5535C94.4014 38.4797 94.3849 38.3874 94.3849 38.2766C94.2858 38.4428 94.1665 38.5665 94.027 38.6477C93.8911 38.7289 93.737 38.7695 93.5644 38.7695ZM93.7627 38.548C93.8838 38.548 93.9958 38.5129 94.0986 38.4428C94.205 38.3726 94.3005 38.2674 94.3849 38.1271V37.0415C94.3409 37.1043 94.2766 37.1578 94.1922 37.2022C94.1078 37.2428 94.016 37.2852 93.9169 37.3295C93.8177 37.3702 93.7223 37.42 93.6305 37.4791C93.5424 37.5345 93.469 37.6083 93.4102 37.7006C93.3515 37.7929 93.3221 37.9129 93.3221 38.0606C93.3221 38.2083 93.3607 38.3265 93.4378 38.4151C93.5185 38.5037 93.6268 38.548 93.7627 38.548Z" fill="black"/>
<path d="M98.4657 35.8175V38.1326C98.4657 38.2988 98.4951 38.4225 98.5538 38.5037C98.6162 38.5812 98.7264 38.62 98.8842 38.62V38.7363C98.7704 38.7252 98.6566 38.7197 98.5428 38.7197C98.4363 38.7197 98.3335 38.7252 98.2344 38.7363C98.139 38.7474 98.0509 38.7677 97.9701 38.7972V38.1437C97.8783 38.3837 97.748 38.5554 97.5791 38.6588C97.4139 38.7585 97.2432 38.8083 97.067 38.8083C96.9385 38.8083 96.8265 38.7898 96.7311 38.7529C96.6356 38.716 96.5567 38.6643 96.4943 38.5978C96.4245 38.524 96.3768 38.428 96.3511 38.3098C96.3254 38.1917 96.3126 38.0458 96.3126 37.8723V36.4822C96.3126 36.316 96.2832 36.1942 96.2244 36.1166C96.1657 36.0354 96.0556 35.9948 95.894 35.9948V35.8785C96.0115 35.8895 96.1253 35.8951 96.2355 35.8951C96.3419 35.8951 96.4429 35.8895 96.5383 35.8785C96.6375 35.8637 96.7274 35.8434 96.8082 35.8175V37.9942C96.8082 38.1086 96.8155 38.2138 96.8302 38.3098C96.8449 38.4058 96.8816 38.4834 96.9403 38.5425C96.9991 38.6015 97.0945 38.6311 97.2267 38.6311C97.3699 38.6311 97.4965 38.5868 97.6066 38.4982C97.7205 38.4095 97.8086 38.2895 97.871 38.1382C97.9371 37.9868 97.9701 37.8169 97.9701 37.6286V36.4822C97.9701 36.316 97.9407 36.1942 97.882 36.1166C97.8232 36.0354 97.7131 35.9948 97.5516 35.9948V35.8785C97.6691 35.8895 97.7829 35.8951 97.893 35.8951C97.9995 35.8951 98.1004 35.8895 98.1959 35.8785C98.295 35.8637 98.3849 35.8434 98.4657 35.8175Z" fill="black"/>
<path d="M100.592 35.8009C100.738 35.8009 100.863 35.8249 100.966 35.8729C101.069 35.9209 101.144 35.9652 101.192 36.0058C101.313 36.1055 101.386 36.0391 101.412 35.8065H101.539C101.531 35.9098 101.526 36.0335 101.522 36.1775C101.519 36.3178 101.517 36.508 101.517 36.748H101.39C101.368 36.6114 101.33 36.4785 101.274 36.3492C101.223 36.22 101.146 36.1148 101.043 36.0335C100.94 35.9486 100.806 35.9062 100.641 35.9062C100.513 35.9062 100.404 35.9431 100.316 36.0169C100.232 36.0871 100.19 36.1923 100.19 36.3326C100.19 36.4434 100.223 36.5394 100.289 36.6206C100.355 36.6982 100.441 36.772 100.548 36.8422C100.654 36.9086 100.77 36.9825 100.894 37.0637C101.034 37.1523 101.161 37.2428 101.274 37.3351C101.388 37.4274 101.478 37.5289 101.544 37.6397C101.614 37.7505 101.649 37.8815 101.649 38.0329C101.649 38.2028 101.605 38.3449 101.517 38.4594C101.429 38.5738 101.313 38.6606 101.17 38.7197C101.03 38.7788 100.876 38.8083 100.707 38.8083C100.626 38.8083 100.549 38.8009 100.476 38.7862C100.406 38.7751 100.338 38.7566 100.272 38.7308C100.236 38.7123 100.197 38.6902 100.157 38.6643C100.12 38.6385 100.083 38.6108 100.046 38.5812C100.01 38.5517 99.9767 38.5535 99.9473 38.5868C99.918 38.6163 99.8959 38.6772 99.8812 38.7695H99.7546C99.7619 38.6514 99.7674 38.5074 99.7711 38.3375C99.7748 38.1677 99.7766 37.9425 99.7766 37.6618H99.9033C99.929 37.8686 99.9657 38.0495 100.013 38.2046C100.061 38.3597 100.136 38.4815 100.239 38.5702C100.342 38.6551 100.485 38.6975 100.669 38.6975C100.742 38.6975 100.816 38.6809 100.889 38.6477C100.966 38.6145 101.03 38.5591 101.082 38.4815C101.133 38.404 101.159 38.3006 101.159 38.1714C101.159 38.0089 101.1 37.876 100.983 37.7726C100.865 37.6692 100.716 37.5603 100.537 37.4458C100.404 37.3609 100.28 37.276 100.162 37.1911C100.048 37.1062 99.9547 37.0102 99.8812 36.9031C99.8115 36.796 99.7766 36.6668 99.7766 36.5154C99.7766 36.3492 99.8133 36.2145 99.8868 36.1111C99.9638 36.004 100.065 35.9265 100.19 35.8785C100.314 35.8268 100.448 35.8009 100.592 35.8009Z" fill="black"/>
<path d="M103.495 35.8009C103.642 35.8009 103.767 35.8249 103.87 35.8729C103.972 35.9209 104.048 35.9652 104.095 36.0058C104.217 36.1055 104.29 36.0391 104.316 35.8065H104.442C104.435 35.9098 104.429 36.0335 104.426 36.1775C104.422 36.3178 104.42 36.508 104.42 36.748H104.294C104.272 36.6114 104.233 36.4785 104.178 36.3492C104.127 36.22 104.049 36.1148 103.947 36.0335C103.844 35.9486 103.71 35.9062 103.545 35.9062C103.416 35.9062 103.308 35.9431 103.22 36.0169C103.135 36.0871 103.093 36.1923 103.093 36.3326C103.093 36.4434 103.126 36.5394 103.192 36.6206C103.258 36.6982 103.345 36.772 103.451 36.8422C103.558 36.9086 103.673 36.9825 103.798 37.0637C103.938 37.1523 104.064 37.2428 104.178 37.3351C104.292 37.4274 104.382 37.5289 104.448 37.6397C104.518 37.7505 104.552 37.8815 104.552 38.0329C104.552 38.2028 104.508 38.3449 104.42 38.4594C104.332 38.5738 104.217 38.6606 104.073 38.7197C103.934 38.7788 103.78 38.8083 103.611 38.8083C103.53 38.8083 103.453 38.8009 103.38 38.7862C103.31 38.7751 103.242 38.7566 103.176 38.7308C103.139 38.7123 103.101 38.6902 103.06 38.6643C103.023 38.6385 102.987 38.6108 102.95 38.5812C102.913 38.5517 102.88 38.5535 102.851 38.5868C102.821 38.6163 102.799 38.6772 102.785 38.7695H102.658C102.665 38.6514 102.671 38.5074 102.675 38.3375C102.678 38.1677 102.68 37.9425 102.68 37.6618H102.807C102.833 37.8686 102.869 38.0495 102.917 38.2046C102.965 38.3597 103.04 38.4815 103.143 38.5702C103.246 38.6551 103.389 38.6975 103.572 38.6975C103.646 38.6975 103.719 38.6809 103.793 38.6477C103.87 38.6145 103.934 38.5591 103.985 38.4815C104.037 38.404 104.062 38.3006 104.062 38.1714C104.062 38.0089 104.004 37.876 103.886 37.7726C103.769 37.6692 103.62 37.5603 103.44 37.4458C103.308 37.3609 103.183 37.276 103.066 37.1911C102.952 37.1062 102.858 37.0102 102.785 36.9031C102.715 36.796 102.68 36.6668 102.68 36.5154C102.68 36.3492 102.717 36.2145 102.79 36.1111C102.867 36.004 102.968 35.9265 103.093 35.8785C103.218 35.8268 103.352 35.8009 103.495 35.8009Z" fill="black"/>
<path d="M106.041 34.4938C106.136 34.4938 106.219 34.5289 106.289 34.5991C106.358 34.6692 106.393 34.7523 106.393 34.8483C106.393 34.9443 106.358 35.0274 106.289 35.0975C106.219 35.1677 106.136 35.2028 106.041 35.2028C105.945 35.2028 105.863 35.1677 105.793 35.0975C105.723 35.0274 105.688 34.9443 105.688 34.8483C105.688 34.7523 105.723 34.6692 105.793 34.5991C105.863 34.5289 105.945 34.4938 106.041 34.4938ZM106.327 35.8175V38.2157C106.327 38.3708 106.358 38.476 106.421 38.5314C106.487 38.5868 106.595 38.6145 106.746 38.6145V38.7308C106.683 38.7271 106.588 38.7234 106.459 38.7197C106.334 38.7123 106.208 38.7086 106.079 38.7086C105.954 38.7086 105.828 38.7123 105.699 38.7197C105.571 38.7234 105.475 38.7271 105.413 38.7308V38.6145C105.563 38.6145 105.67 38.5868 105.732 38.5314C105.798 38.476 105.831 38.3708 105.831 38.2157V36.4822C105.831 36.316 105.802 36.1942 105.743 36.1166C105.685 36.0354 105.575 35.9948 105.413 35.9948V35.8785C105.53 35.8895 105.644 35.8951 105.754 35.8951C105.861 35.8951 105.962 35.8895 106.057 35.8785C106.156 35.8637 106.246 35.8434 106.327 35.8175Z" fill="black"/>
<path d="M110.264 35.8009C110.411 35.8009 110.536 35.8249 110.639 35.8729C110.742 35.9209 110.817 35.9652 110.865 36.0058C110.986 36.1055 111.059 36.0391 111.085 35.8065H111.212C111.204 35.9098 111.199 36.0335 111.195 36.1775C111.191 36.3178 111.19 36.508 111.19 36.748H111.063C111.041 36.6114 111.002 36.4785 110.947 36.3492C110.896 36.22 110.819 36.1148 110.716 36.0335C110.613 35.9486 110.479 35.9062 110.314 35.9062C110.185 35.9062 110.077 35.9431 109.989 36.0169C109.905 36.0871 109.862 36.1923 109.862 36.3326C109.862 36.4434 109.895 36.5394 109.962 36.6206C110.028 36.6982 110.114 36.772 110.22 36.8422C110.327 36.9086 110.442 36.9825 110.567 37.0637C110.707 37.1523 110.833 37.2428 110.947 37.3351C111.061 37.4274 111.151 37.5289 111.217 37.6397C111.287 37.7505 111.322 37.8815 111.322 38.0329C111.322 38.2028 111.278 38.3449 111.19 38.4594C111.101 38.5738 110.986 38.6606 110.843 38.7197C110.703 38.7788 110.549 38.8083 110.38 38.8083C110.299 38.8083 110.222 38.8009 110.149 38.7862C110.079 38.7751 110.011 38.7566 109.945 38.7308C109.908 38.7123 109.87 38.6902 109.829 38.6643C109.793 38.6385 109.756 38.6108 109.719 38.5812C109.683 38.5517 109.649 38.5535 109.62 38.5868C109.591 38.6163 109.569 38.6772 109.554 38.7695H109.427C109.435 38.6514 109.44 38.5074 109.444 38.3375C109.448 38.1677 109.449 37.9425 109.449 37.6618H109.576C109.602 37.8686 109.638 38.0495 109.686 38.2046C109.734 38.3597 109.809 38.4815 109.912 38.5702C110.015 38.6551 110.158 38.6975 110.341 38.6975C110.415 38.6975 110.488 38.6809 110.562 38.6477C110.639 38.6145 110.703 38.5591 110.755 38.4815C110.806 38.404 110.832 38.3006 110.832 38.1714C110.832 38.0089 110.773 37.876 110.655 37.7726C110.538 37.6692 110.389 37.5603 110.209 37.4458C110.077 37.3609 109.952 37.276 109.835 37.1911C109.721 37.1062 109.627 37.0102 109.554 36.9031C109.484 36.796 109.449 36.6668 109.449 36.5154C109.449 36.3492 109.486 36.2145 109.56 36.1111C109.637 36.004 109.738 35.9265 109.862 35.8785C109.987 35.8268 110.121 35.8009 110.264 35.8009Z" fill="black"/>
<path d="M112.81 34.4938C112.905 34.4938 112.988 34.5289 113.058 34.5991C113.128 34.6692 113.162 34.7523 113.162 34.8483C113.162 34.9443 113.128 35.0274 113.058 35.0975C112.988 35.1677 112.905 35.2028 112.81 35.2028C112.715 35.2028 112.632 35.1677 112.562 35.0975C112.492 35.0274 112.458 34.9443 112.458 34.8483C112.458 34.7523 112.492 34.6692 112.562 34.5991C112.632 34.5289 112.715 34.4938 112.81 34.4938ZM113.096 35.8175V38.2157C113.096 38.3708 113.128 38.476 113.19 38.5314C113.256 38.5868 113.364 38.6145 113.515 38.6145V38.7308C113.452 38.7271 113.357 38.7234 113.229 38.7197C113.104 38.7123 112.977 38.7086 112.849 38.7086C112.724 38.7086 112.597 38.7123 112.469 38.7197C112.34 38.7234 112.245 38.7271 112.182 38.7308V38.6145C112.333 38.6145 112.439 38.5868 112.502 38.5314C112.568 38.476 112.601 38.3708 112.601 38.2157V36.4822C112.601 36.316 112.571 36.1942 112.513 36.1166C112.454 36.0354 112.344 35.9948 112.182 35.9948V35.8785C112.3 35.8895 112.414 35.8951 112.524 35.8951C112.63 35.8951 112.731 35.8895 112.827 35.8785C112.926 35.8637 113.016 35.8434 113.096 35.8175Z" fill="black"/>
<path d="M116.053 35.8009C116.182 35.8009 116.294 35.8194 116.389 35.8563C116.485 35.8932 116.564 35.9449 116.626 36.0114C116.696 36.0852 116.743 36.1812 116.769 36.2994C116.795 36.4175 116.808 36.5634 116.808 36.7369V38.2157C116.808 38.3708 116.839 38.476 116.901 38.5314C116.967 38.5868 117.076 38.6145 117.226 38.6145V38.7308C117.164 38.7271 117.068 38.7234 116.94 38.7197C116.811 38.7123 116.687 38.7086 116.565 38.7086C116.444 38.7086 116.325 38.7123 116.207 38.7197C116.094 38.7234 116.007 38.7271 115.949 38.7308V38.6145C116.081 38.6145 116.174 38.5868 116.23 38.5314C116.285 38.476 116.312 38.3708 116.312 38.2157V36.6151C116.312 36.5006 116.305 36.3954 116.29 36.2994C116.275 36.2034 116.239 36.1258 116.18 36.0668C116.121 36.0077 116.026 35.9782 115.894 35.9782C115.75 35.9782 115.622 36.0225 115.508 36.1111C115.398 36.1997 115.31 36.3215 115.244 36.4766C115.181 36.628 115.15 36.7978 115.15 36.9862V38.2157C115.15 38.3708 115.178 38.476 115.233 38.5314C115.288 38.5868 115.381 38.6145 115.514 38.6145V38.7308C115.455 38.7271 115.367 38.7234 115.249 38.7197C115.136 38.7123 115.018 38.7086 114.897 38.7086C114.776 38.7086 114.651 38.7123 114.522 38.7197C114.394 38.7234 114.298 38.7271 114.236 38.7308V38.6145C114.387 38.6145 114.493 38.5868 114.555 38.5314C114.622 38.476 114.655 38.3708 114.655 38.2157V36.4822C114.655 36.316 114.625 36.1942 114.566 36.1166C114.508 36.0354 114.398 35.9948 114.236 35.9948V35.8785C114.354 35.8895 114.467 35.8951 114.577 35.8951C114.684 35.8951 114.785 35.8895 114.88 35.8785C114.979 35.8637 115.069 35.8434 115.15 35.8175V36.4711C115.246 36.2311 115.376 36.0594 115.541 35.956C115.706 35.8526 115.877 35.8009 116.053 35.8009ZM117.711 35.8009C117.839 35.8009 117.951 35.8194 118.047 35.8563C118.142 35.8932 118.221 35.9449 118.284 36.0114C118.353 36.0852 118.401 36.1812 118.427 36.2994C118.452 36.4175 118.465 36.5634 118.465 36.7369V38.2157C118.465 38.3708 118.496 38.476 118.559 38.5314C118.625 38.5868 118.733 38.6145 118.884 38.6145V38.7308C118.821 38.7271 118.726 38.7234 118.597 38.7197C118.469 38.7123 118.344 38.7086 118.223 38.7086C118.102 38.7086 117.983 38.7123 117.865 38.7197C117.751 38.7234 117.665 38.7271 117.606 38.7308V38.6145C117.738 38.6145 117.832 38.5868 117.887 38.5314C117.942 38.476 117.97 38.3708 117.97 38.2157V36.6151C117.97 36.5006 117.962 36.3954 117.948 36.2994C117.933 36.2034 117.896 36.1258 117.837 36.0668C117.779 36.0077 117.683 35.9782 117.551 35.9782C117.408 35.9782 117.279 36.0225 117.166 36.1111C117.056 36.1997 116.967 36.3197 116.901 36.4711C116.839 36.6225 116.808 36.7923 116.808 36.9806L116.791 36.4655C116.89 36.2108 117.024 36.0372 117.193 35.9449C117.362 35.8489 117.535 35.8009 117.711 35.8009Z" fill="black"/>
<path d="M120.441 35.8175V39.2182C120.441 39.3769 120.486 39.4822 120.578 39.5338C120.674 39.5892 120.804 39.6169 120.969 39.6169V39.7332C120.888 39.7295 120.776 39.724 120.633 39.7166C120.49 39.7129 120.338 39.7111 120.176 39.7111C120.062 39.7111 119.949 39.7129 119.835 39.7166C119.725 39.724 119.64 39.7295 119.581 39.7332V39.6169C119.714 39.6169 119.807 39.5929 119.862 39.5449C119.917 39.4969 119.945 39.4065 119.945 39.2735V36.4822C119.945 36.316 119.916 36.1942 119.857 36.1166C119.798 36.0354 119.688 35.9948 119.526 35.9948V35.8785C119.644 35.8895 119.758 35.8951 119.868 35.8951C119.974 35.8951 120.075 35.8895 120.171 35.8785C120.27 35.8637 120.36 35.8434 120.441 35.8175ZM121.322 35.8009C121.516 35.8009 121.691 35.8545 121.845 35.9615C121.999 36.0649 122.12 36.2182 122.208 36.4212C122.3 36.6243 122.346 36.8754 122.346 37.1745C122.346 37.3738 122.322 37.5714 122.274 37.7671C122.227 37.9591 122.151 38.1345 122.049 38.2932C121.949 38.4483 121.819 38.5738 121.658 38.6698C121.5 38.7622 121.309 38.8083 121.085 38.8083C120.912 38.8083 120.762 38.7677 120.633 38.6865C120.508 38.6052 120.424 38.5074 120.38 38.3929L120.435 38.3154C120.486 38.4188 120.56 38.5055 120.655 38.5757C120.754 38.6458 120.877 38.6809 121.024 38.6809C121.23 38.6809 121.39 38.6163 121.503 38.4871C121.617 38.3578 121.696 38.1862 121.74 37.972C121.788 37.7542 121.812 37.5142 121.812 37.252C121.812 36.9566 121.788 36.7148 121.74 36.5265C121.692 36.3382 121.621 36.1978 121.525 36.1055C121.43 36.0132 121.312 35.9671 121.173 35.9671C120.993 35.9671 120.83 36.0428 120.683 36.1942C120.536 36.3418 120.442 36.5671 120.402 36.8698L120.336 36.7923C120.376 36.4785 120.486 36.2348 120.666 36.0612C120.85 35.8877 121.068 35.8009 121.322 35.8009Z" fill="black"/>
<path d="M124.081 34.3886V38.2157C124.081 38.3708 124.112 38.476 124.174 38.5314C124.241 38.5868 124.349 38.6145 124.499 38.6145V38.7308C124.437 38.7271 124.341 38.7234 124.213 38.7197C124.088 38.7123 123.961 38.7086 123.833 38.7086C123.708 38.7086 123.582 38.7123 123.453 38.7197C123.325 38.7234 123.229 38.7271 123.167 38.7308V38.6145C123.317 38.6145 123.424 38.5868 123.486 38.5314C123.552 38.476 123.585 38.3708 123.585 38.2157V35.0532C123.585 34.8871 123.556 34.7652 123.497 34.6877C123.438 34.6065 123.328 34.5658 123.167 34.5658V34.4495C123.284 34.4606 123.398 34.4662 123.508 34.4662C123.615 34.4662 123.716 34.4606 123.811 34.4495C123.91 34.4348 124 34.4145 124.081 34.3886Z" fill="black"/>
<path d="M126.506 35.8009C126.829 35.8009 127.08 35.9006 127.26 36.1C127.444 36.2957 127.536 36.6022 127.536 37.0194H125.592L125.586 36.9142H127.007C127.014 36.7332 127 36.5671 126.963 36.4157C126.926 36.2606 126.867 36.1369 126.787 36.0446C126.71 35.9523 126.609 35.9062 126.484 35.9062C126.315 35.9062 126.164 35.9911 126.032 36.1609C125.904 36.3308 125.827 36.6003 125.801 36.9695L125.817 36.9917C125.81 37.0471 125.805 37.108 125.801 37.1745C125.797 37.2409 125.795 37.3074 125.795 37.3738C125.795 37.6249 125.836 37.8409 125.917 38.0218C125.997 38.2028 126.102 38.3412 126.23 38.4372C126.363 38.5295 126.498 38.5757 126.638 38.5757C126.748 38.5757 126.853 38.5591 126.952 38.5258C127.051 38.4889 127.143 38.4298 127.227 38.3486C127.312 38.2674 127.385 38.1585 127.447 38.0218L127.558 38.0662C127.517 38.188 127.451 38.3062 127.359 38.4206C127.268 38.5351 127.152 38.6292 127.012 38.7031C126.873 38.7732 126.711 38.8083 126.528 38.8083C126.264 38.8083 126.036 38.7474 125.845 38.6255C125.658 38.5037 125.513 38.3357 125.41 38.1215C125.311 37.9037 125.261 37.6545 125.261 37.3738C125.261 37.0489 125.313 36.7702 125.415 36.5375C125.518 36.3012 125.663 36.1203 125.851 35.9948C126.038 35.8655 126.256 35.8009 126.506 35.8009Z" fill="black"/>
</g>
<line x1="13" y1="35.3077" x2="23.3252" y2="35.3077" stroke="black" stroke-width="2"/>
<line x1="13" y1="35.3077" x2="23.3252" y2="35.3077" stroke="black" stroke-opacity="0.2" stroke-width="2"/>
<line x1="129.675" y1="35.3077" x2="140" y2="35.3077" stroke="black" stroke-width="2"/>
<line x1="129.675" y1="35.3077" x2="140" y2="35.3077" stroke="black" stroke-opacity="0.2" stroke-width="2"/>
<defs>
<filter id="filter0_d_459_2435" x="9" y="43.5769" width="135" height="10.4231" filterUnits="userSpaceOnUse" color-interpolation-filters="sRGB">
<feFlood flood-opacity="0" result="BackgroundImageFix"/>
<feColorMatrix in="SourceAlpha" type="matrix" values="0 0 0 0 0 0 0 0 0 0 0 0 0 0 0 0 0 0 127 0" result="hardAlpha"/>
<feOffset dy="4"/>
<feGaussianBlur stdDeviation="2"/>
<feComposite in2="hardAlpha" operator="out"/>
<feColorMatrix type="matrix" values="0 0 0 0 0 0 0 0 0 0 0 0 0 0 0 0 0 0 0.25 0"/>
<feBlend mode="normal" in2="BackgroundImageFix" result="effect1_dropShadow_459_2435"/>
<feBlend mode="normal" in="SourceGraphic" in2="effect1_dropShadow_459_2435" result="shape"/>
</filter>
<filter id="filter1_d_459_2435" x="28.9619" y="19" width="94.5483" height="21.4585" filterUnits="userSpaceOnUse" color-interpolation-filters="sRGB">
<feFlood flood-opacity="0" result="BackgroundImageFix"/>
<feColorMatrix in="SourceAlpha" type="matrix" values="0 0 0 0 0 0 0 0 0 0 0 0 0 0 0 0 0 0 127 0" result="hardAlpha"/>
<feOffset dy="4"/>
<feGaussianBlur stdDeviation="2"/>
<feComposite in2="hardAlpha" operator="out"/>
<feColorMatrix type="matrix" values="0 0 0 0 0 0 0 0 0 0 0 0 0 0 0 0 0 0 0.25 0"/>
<feBlend mode="normal" in2="BackgroundImageFix" result="effect1_dropShadow_459_2435"/>
<feBlend mode="normal" in="SourceGraphic" in2="effect1_dropShadow_459_2435" result="shape"/>
</filter>
<filter id="filter2_d_459_2435" x="21.3379" y="34.1872" width="110.22" height="13.5848" filterUnits="userSpaceOnUse" color-interpolation-filters="sRGB">
<feFlood flood-opacity="0" result="BackgroundImageFix"/>
<feColorMatrix in="SourceAlpha" type="matrix" values="0 0 0 0 0 0 0 0 0 0 0 0 0 0 0 0 0 0 127 0" result="hardAlpha"/>
<feOffset dy="4"/>
<feGaussianBlur stdDeviation="2"/>
<feComposite in2="hardAlpha" operator="out"/>
<feColorMatrix type="matrix" values="0 0 0 0 0 0 0 0 0 0 0 0 0 0 0 0 0 0 0.25 0"/>
<feBlend mode="normal" in2="BackgroundImageFix" result="effect1_dropShadow_459_2435"/>
<feBlend mode="normal" in="SourceGraphic" in2="effect1_dropShadow_459_2435" result="shape"/>
</filter>
</defs>
</svg>
